<?xml version="1.0" encoding="UTF-8"?>
<svg version="1.1" xmlns="http://www.w3.org/2000/svg" width="1112" height="203">
<path d="M0 0 C2.76980888 2.57666849 5.42664543 5.22756069 8 8 C8.38929688 7.50371094 8.77859375 7.00742187 9.1796875 6.49609375 C19.21122619 -5.68506038 34.13555973 -13.70681632 49.80761719 -15.7890625 C73.64322693 -18.08237729 95.01085823 -14.205958 114 1 C127.15629202 12.80018192 133.97196447 29.70202634 136 47 C136.13504753 50.50899481 136.12659334 54.01393113 136.11352539 57.52514648 C136.11367142 58.56004715 136.11381744 59.59494781 136.1139679 60.66120911 C136.11327407 64.06452569 136.10550652 67.46778679 136.09765625 70.87109375 C136.09579019 73.23763499 136.09436717 75.60417662 136.09336853 77.97071838 C136.08955818 84.18656488 136.07974056 90.40238786 136.06866455 96.6182251 C136.05841855 102.96618329 136.05386408 109.31414529 136.04882812 115.66210938 C136.03811695 128.10808323 136.02105835 140.55403965 136 153 C129.3247966 153.02526945 122.64960543 153.04283268 115.97436523 153.05493164 C113.70157409 153.05997325 111.4287862 153.06680637 109.15600586 153.07543945 C105.89696449 153.08751261 102.63796583 153.09322987 99.37890625 153.09765625 C98.35599991 153.10281754 97.33309357 153.10797882 96.27919006 153.11329651 C95.33829025 153.11337204 94.39739044 153.11344757 93.42797852 153.11352539 C92.59524918 153.115746 91.76251984 153.11796661 90.90455627 153.12025452 C89 153 89 153 88 152 C87.89588377 148.91754237 87.85639228 145.85675327 87.8581543 142.77368164 C87.85467987 141.80448792 87.85120544 140.83529419 87.84762573 139.83673096 C87.84025186 137.72287131 87.83491522 135.60900383 87.83133507 133.49513435 C87.82418502 130.14435138 87.80852664 126.79371617 87.78999329 123.44297791 C87.73747481 113.91244615 87.68959822 104.38199149 87.67407227 94.85131836 C87.66396144 89.02744754 87.63454987 83.20394257 87.59275246 77.3802166 C87.58047332 75.16401379 87.57531553 72.94775921 87.57755089 70.73152351 C87.57991731 67.61757913 87.55763213 64.50467272 87.5300293 61.39086914 C87.53663071 60.48396835 87.54323212 59.57706757 87.55003357 58.64268494 C87.41726273 49.46165642 84.52893362 41.52893362 78 35 C70.50896942 29.70146618 61.79237216 30.51930371 53 31 C47.30942973 32.07866033 43.03246932 34.87588365 39 39 C34.01514676 46.78883319 32.70310304 54.59651241 32.69702148 63.66723633 C32.68436249 65.08309525 32.68436249 65.08309525 32.67144775 66.52755737 C32.64577935 69.62905409 32.63355771 72.73045591 32.62109375 75.83203125 C32.60491236 77.99200691 32.58773169 80.1519753 32.56959534 82.31193542 C32.52399959 87.98445278 32.48914044 93.65697988 32.45739746 99.32958984 C32.40542581 108.42685988 32.34049038 117.52402354 32.26918221 126.62116051 C32.24630954 129.80202146 32.23006835 132.98286872 32.21446228 136.16377258 C32.20106118 138.10242873 32.18744687 140.04108343 32.17358398 141.97973633 C32.17097061 142.8685701 32.16835724 143.75740387 32.16566467 144.673172 C32.11364019 150.77271962 32.11364019 150.77271962 31 153 C24.3247966 153.02526945 17.64960543 153.04283268 10.97436523 153.05493164 C8.70157409 153.05997325 6.4287862 153.06680637 4.15600586 153.07543945 C0.89696449 153.08751261 -2.36203417 153.09322987 -5.62109375 153.09765625 C-6.64400009 153.10281754 -7.66690643 153.10797882 -8.72080994 153.11329651 C-9.66170975 153.11337204 -10.60260956 153.11344757 -11.57202148 153.11352539 C-12.40475082 153.115746 -13.23748016 153.11796661 -14.09544373 153.12025452 C-16 153 -16 153 -17 152 C-17.10940239 149.00921235 -17.15423881 146.04067478 -17.15771484 143.04907227 C-17.16279556 142.10913925 -17.16787628 141.16920624 -17.17311096 140.20079041 C-17.18384298 138.15077725 -17.19245196 136.10075217 -17.19923019 134.05072212 C-17.21099415 130.8007555 -17.2304442 127.55092329 -17.25234985 124.30101013 C-17.31402398 115.05724606 -17.36788237 105.81349248 -17.40136719 96.56958008 C-17.42238265 90.92081797 -17.45775105 85.27229534 -17.50212479 79.62367058 C-17.51624157 77.47445445 -17.52499741 75.32519588 -17.52817917 73.17593575 C-17.53312034 70.15553123 -17.5563641 67.13575425 -17.58349609 64.11547852 C-17.57898689 62.79720566 -17.57898689 62.79720566 -17.5743866 61.45230103 C-17.68817087 52.86807066 -19.50516982 44.7877314 -25 38 C-30.88516246 32.43295443 -36.96471494 30.46075051 -44.9375 30.625 C-45.99191284 30.63805176 -45.99191284 30.63805176 -47.06762695 30.65136719 C-54.57489338 30.86389451 -60.62250383 32.4771661 -66 38 C-74.80965972 50.26693897 -73.33325631 65.46976216 -73.4140625 79.85546875 C-73.43279783 81.9696781 -73.45237296 84.08388016 -73.4727478 86.19807434 C-73.52382521 91.72990599 -73.56358073 97.26176182 -73.60089111 102.79370117 C-73.64816644 109.44863141 -73.70965871 116.10344398 -73.76873779 122.75827789 C-73.85665226 132.83880379 -73.92662973 142.91931054 -74 153 C-89.51 153 -105.02 153 -121 153 C-121.12032643 127.14764412 -121.12032643 127.14764412 -121.14648438 116.05273438 C-121.16435635 108.50831706 -121.18540536 100.96400988 -121.22631836 93.41967773 C-121.25912598 87.33125673 -121.27689787 81.24295401 -121.28463173 75.15445137 C-121.29013703 72.84185489 -121.30088655 70.52926423 -121.31719017 68.21671867 C-121.48435705 43.50261097 -118.34234495 21.28210869 -100.66796875 2.453125 C-91.80441812 -5.69666972 -81.55353806 -10.71476457 -70 -14 C-69.15824219 -14.24492187 -68.31648438 -14.48984375 -67.44921875 -14.7421875 C-44.17422337 -20.16188339 -18.3494452 -15.32388782 0 0 Z " fill="#010F1D" transform="translate(134,24)"/>
<path d="M0 0 C3.11431765 9.79362957 6.08316609 19.61055644 8.83161163 29.51365471 C9.4094687 31.59522291 9.99069255 33.6758275 10.57269287 35.75624084 C12.01158815 40.9018271 13.44588335 46.04869141 14.87866211 51.19598389 C16.10297298 55.59432426 17.32981836 59.99193939 18.56053925 64.38849068 C19.1331384 66.43804629 19.7018865 68.48864615 20.27056885 70.53929138 C20.61472839 71.76890091 20.95888794 72.99851044 21.31347656 74.26538086 C21.61594299 75.3518541 21.91840942 76.43832733 22.2300415 77.557724 C22.7690799 79.92300581 22.7690799 79.92300581 24 81 C24.22693039 80.20645615 24.45386078 79.41291229 24.68766785 78.59532166 C26.84613302 71.04967633 29.00777122 63.50494845 31.17281628 55.96118832 C32.28528646 52.08455448 33.3966049 48.20759881 34.50512695 44.32983398 C35.57861597 40.5747905 36.65534457 36.82068888 37.73415565 33.0671711 C38.14144398 31.64806547 38.54764053 30.22864595 38.95262718 28.80888176 C39.52810681 26.79218936 40.10777027 24.77673777 40.68823242 22.76147461 C41.01466232 21.62230087 41.34109222 20.48312714 41.67741394 19.30943298 C43.66452123 12.83476493 45.85827355 6.42517935 48 0 C60.21 0 72.42 0 85 0 C88.37460047 7.87406776 88.37460047 7.87406776 89.29931641 11.25 C89.51059174 12.01133743 89.72186707 12.77267487 89.93954468 13.55708313 C90.15801056 14.3632457 90.37647644 15.16940826 90.6015625 16 C90.95862778 17.29256966 90.95862778 17.29256966 91.32290649 18.61125183 C91.83148634 20.45375259 92.3379303 22.29684404 92.84240723 24.14047241 C94.16347336 28.96753596 95.50028568 33.79023708 96.8359375 38.61328125 C97.23582886 40.05940544 97.23582886 40.05940544 97.64379883 41.53474426 C100.11068743 50.43908172 102.66038887 59.31816894 105.25 68.1875 C105.44426575 68.85338135 105.63853149 69.5192627 105.83868408 70.20532227 C106.88921364 73.80450246 107.94286981 77.40275321 109 81 C111.83821976 73.90803073 113.85469667 66.6591562 115.87109375 59.296875 C116.23795971 57.96930857 116.60524167 56.64185703 116.97291565 55.31451416 C118.13183504 51.12745737 119.28494717 46.93881297 120.4375 42.75 C121.77175426 37.90245201 123.10850326 33.05561142 124.45021248 28.21012115 C124.98006226 26.29239891 125.50601487 24.37360124 126.03184509 22.45477295 C128.12551326 14.88452023 130.43438466 7.42380386 133 0 C147.43256927 -0.85297825 161.57466679 -1.02699525 176 0 C177 2 177 2 176.59358215 3.79602051 C176.2181855 4.88795715 176.2181855 4.88795715 175.83520508 6.00195312 C175.4119973 7.25054863 175.4119973 7.25054863 174.98023987 8.52436829 C174.66320602 9.43413925 174.34617218 10.34391022 174.01953125 11.28125 C173.53364784 12.70312874 173.53364784 12.70312874 173.03794861 14.1537323 C171.97015941 17.27173628 170.8914639 20.3858471 169.8125 23.5 C169.07076828 25.65843113 168.32956065 27.81704243 167.58886719 29.97583008 C163.14218972 42.91193322 158.61854178 55.82020991 154.03109741 68.70700073 C149.32549278 81.93082397 144.87162632 95.23351824 140.4822998 108.56532288 C139.79621636 110.63853863 139.10040148 112.70829179 138.40332031 114.77783203 C137.40029815 117.76113264 136.4535111 120.75744043 135.52636719 123.76513672 C135.02597417 125.3214768 134.52501378 126.8776346 134.0234375 128.43359375 C133.80926178 129.16232193 133.59508606 129.89105011 133.37442017 130.64186096 C132.21388442 134.15503507 131.52402136 135.72886683 128.18115234 137.45849609 C125.07661785 137.98695791 122.22586995 138.24347807 119.078125 138.23046875 C117.96953125 138.22853516 116.8609375 138.22660156 115.71875 138.22460938 C114.5740625 138.21236328 113.429375 138.20011719 112.25 138.1875 C111.12078125 138.18685547 109.9915625 138.18621094 108.828125 138.18554688 C102.16188108 138.15082685 95.61698515 137.81539423 89 137 C84.72994766 123.47172074 80.54743647 109.92177985 76.54296875 96.3125 C76.10311394 94.81792267 76.10311394 94.81792267 75.65437317 93.29315186 C74.18235949 88.2859227 72.71602736 83.27708383 71.25512695 78.26660156 C70.71179102 76.41209774 70.16841714 74.55760503 69.625 72.703125 C69.37433273 71.83776123 69.12366547 70.97239746 68.86540222 70.08081055 C68.00538314 66.23656757 68.00538314 66.23656757 66 63 C65.65332275 64.14549316 65.30664551 65.29098633 64.94946289 66.47119141 C64.71791504 67.23625504 64.48636719 68.00131866 64.24780273 68.78956604 C63.72225762 70.52658576 63.19695612 72.2636792 62.671875 74.00083923 C61.20886243 78.8404057 59.7423538 83.67886444 58.26928711 88.51538086 C55.54439558 97.47675062 52.84773059 106.43897587 50.34375 115.46484375 C49.76359288 117.52200117 49.18174399 119.57867208 48.59933472 121.63519287 C48.07134374 123.5307498 47.56973181 125.4335908 47.06860352 127.33642578 C46.74819092 128.46419434 46.42777832 129.59196289 46.09765625 130.75390625 C45.83476807 131.72658447 45.57187988 132.6992627 45.30102539 133.70141602 C44 136 44 136 41.19140625 137.31347656 C38.2919128 137.9372048 35.79561863 138.24476682 32.83984375 138.23046875 C31.4002832 138.22756836 31.4002832 138.22756836 29.93164062 138.22460938 C28.94357422 138.21236328 27.95550781 138.20011719 26.9375 138.1875 C25.97650391 138.18685547 25.01550781 138.18621094 24.02539062 138.18554688 C16.6511903 138.14138999 9.34439134 137.64279143 2 137 C-1.63574345 126.36045815 -5.26950151 115.72024014 -8.90101624 105.07925415 C-10.59714915 100.10937903 -12.29375866 95.13966803 -13.99169922 90.17041016 C-18.67838113 76.45277636 -23.34864872 62.72965493 -28 49 C-28.35523743 47.9520929 -28.71047485 46.90418579 -29.07647705 45.82452393 C-31.22188918 39.4933337 -33.35983111 33.15969905 -35.48782349 26.82263184 C-36.15818902 24.82901845 -36.83058675 22.83608716 -37.50509644 20.84387207 C-38.43626701 18.09182924 -39.3597591 15.3373277 -40.28125 12.58203125 C-40.55852432 11.76767105 -40.83579865 10.95331085 -41.12147522 10.11427307 C-41.37078293 9.3634697 -41.62009064 8.61266632 -41.87695312 7.83911133 C-42.09516724 7.19033524 -42.31338135 6.54155914 -42.53820801 5.87312317 C-43 4 -43 4 -43 0 C-28.56887489 -0.86610318 -14.42362601 -1.0268737 0 0 Z " fill="#196F03" transform="translate(776,40)"/>
<path d="M0 0 C16.05111326 13.52251322 22.94521379 30.86511091 24.7578125 51.5234375 C25.17731093 57.7090354 24.93880935 63.86454896 24 70 C22.03571633 71.96428367 19.01702837 71.12023917 16.40252686 71.12442017 C15.4523468 71.12082489 14.50216675 71.11722961 13.52319336 71.11352539 C12.03067802 71.11374443 12.03067802 71.11374443 10.50801086 71.1139679 C7.20193338 71.11326831 3.89591146 71.10547379 0.58984375 71.09765625 C-1.69559193 71.09579223 -3.98102801 71.09436825 -6.26646423 71.09336853 C-12.29498387 71.08954207 -18.32347959 71.0797107 -24.35198975 71.06866455 C-30.49832841 71.05845317 -36.64467093 71.0538715 -42.79101562 71.04882812 C-54.86068762 71.03808854 -66.93034182 71.0210106 -79 71 C-78.38197806 72.59935329 -77.75852698 74.19660931 -77.1328125 75.79296875 C-76.78621582 76.68266357 -76.43961914 77.5723584 -76.08251953 78.48901367 C-72.85427701 85.97716757 -67.25489338 89.09804265 -60 92 C-54.76053118 93.77955923 -50.15754205 94.35515743 -44.6875 94.3125 C-43.93984375 94.30758545 -43.1921875 94.3026709 -42.421875 94.29760742 C-29.54120568 94.02553956 -20.19303052 88.37053477 -10 81 C-9.14019531 81.67804688 -8.28039062 82.35609375 -7.39453125 83.0546875 C0.69438073 89.42605921 8.8248864 95.73965553 17 102 C12.07599087 113.57807551 -1.1963417 121.2037071 -12.3125 125.75 C-34.34807517 133.5408743 -59.19135712 134.21800694 -80.7421875 124.35546875 C-98.33248602 115.35719826 -110.80374061 102.09766829 -117.28125 83.27734375 C-123.1205681 63.77819225 -122.66806725 42.27592869 -113 24 C-105.71567338 11.19020466 -95.96514542 1.05742568 -83 -6 C-82.00355469 -6.54527344 -81.00710938 -7.09054688 -79.98046875 -7.65234375 C-54.58812092 -20.4581024 -22.58504588 -17.05203321 0 0 Z M-72.82421875 31.9921875 C-76.20789754 36.33443873 -79 40.34249068 -79 46 C-58.21 46 -37.42 46 -16 46 C-17.27504964 37.07465249 -20.14818952 31.86894838 -27.171875 26.25 C-41.15141432 16.69134064 -61.53123733 19.65938124 -72.82421875 31.9921875 Z " fill="#010F1D" transform="translate(406,50)"/>
<path d="M0 0 C1.13501953 0.87398437 1.13501953 0.87398437 2.29296875 1.765625 C16.08161501 13.06234724 23.62484108 29.61274066 26.6875 46.875 C28.65959325 67.56099942 23.7604911 87.7785133 10.5234375 104.04296875 C-1.80270451 118.2822837 -18.87140562 128.76342136 -37.96777344 130.22753906 C-61.11906655 131.33595689 -82.54141772 127.3089596 -100.41015625 111.58984375 C-114.5529115 97.4470885 -123.1015323 80.88830957 -123.38085938 60.67504883 C-123.34471472 39.93253478 -123.34471472 39.93253478 -119 30 C-118.73687012 29.39687988 -118.47374023 28.79375977 -118.20263672 28.17236328 C-109.54297478 8.91723495 -94.3575249 -4.0114095 -75 -12 C-71.031858 -13.30625489 -67.1086229 -14.26108487 -63 -15 C-61.88625 -15.226875 -60.7725 -15.45375 -59.625 -15.6875 C-38.27436116 -17.52807231 -16.97668607 -13.72208822 0 0 Z M-75.16015625 33.73828125 C-81.992553 42.13734223 -83.5645676 50.76128202 -83.37109375 61.40234375 C-82.36154889 71.1896155 -77.5525778 79.73507481 -70 86 C-60.551992 91.81604649 -51.8579631 94.4555426 -40.87890625 92.421875 C-31.53263583 89.99999103 -24.89914363 85.59122482 -19.34375 77.625 C-13.7203059 67.94744504 -12.33744231 57.91457103 -14.65234375 46.89453125 C-17.90257445 37.00434427 -23.46802452 30.31397633 -32.47265625 25.19140625 C-47.71889145 18.004232 -63.9218167 21.44317198 -75.16015625 33.73828125 Z " fill="#196F02" transform="translate(1075,51)"/>
<path d="M0 0 C11.44452157 8.05952223 18.58981436 19.71659548 21.26953125 33.44458008 C22.79265551 42.85708867 22.46539718 52.3536189 22.4140625 61.859375 C22.41032565 63.90488547 22.40748186 65.95039774 22.40548706 67.99591064 C22.39790348 73.34205187 22.37830112 78.68808194 22.3560791 84.03417969 C22.33187988 90.4687775 22.32281454 96.90341278 22.31117249 103.33804321 C22.29187304 113.07960578 22.25351375 122.82092513 22.21875 132.5625 C8.35875 132.5625 -5.50125 132.5625 -19.78125 132.5625 C-20.64732593 128.23212036 -20.88623636 124.7966766 -20.84716797 120.42407227 C-20.84015869 119.37406288 -20.84015869 119.37406288 -20.83300781 118.30284119 C-20.82253723 116.78763316 -20.80988523 115.27243895 -20.79528427 113.75726509 C-20.77313581 111.34606306 -20.75913526 108.93494125 -20.74758911 106.52366638 C-20.71413734 99.6690682 -20.67288324 92.81460027 -20.60986328 85.96020508 C-20.57182615 81.75932596 -20.54907195 77.55858363 -20.53555679 73.3575573 C-20.52759267 71.76979714 -20.51411553 70.18205328 -20.49462509 68.59439278 C-19.96456748 50.31716953 -19.96456748 50.31716953 -27.78125 34.5625 C-33.83330344 30.06970924 -41.04341814 28.95345136 -48.39453125 29.8984375 C-55.20571067 31.49012435 -58.91467829 34.83047702 -62.78125 40.5625 C-66.06827882 46.68832643 -65.93233311 53.8884334 -65.98657227 60.70092773 C-65.99647186 61.48223557 -66.00637146 62.2635434 -66.01657104 63.06852722 C-66.04792943 65.6276862 -66.07284095 68.18686369 -66.09765625 70.74609375 C-66.11824799 72.52971352 -66.13924502 74.31332865 -66.16062927 76.09693909 C-66.21562074 80.77395861 -66.26513039 85.45102049 -66.31347656 90.12811279 C-66.36385977 94.90771215 -66.41945774 99.68725058 -66.47460938 104.46679688 C-66.58191023 113.83197911 -66.68341664 123.19721441 -66.78125 132.5625 C-72.60196622 132.58714638 -78.42265234 132.6053343 -84.2434082 132.61743164 C-86.22518441 132.62247267 -88.20695689 132.62930538 -90.1887207 132.63793945 C-93.03077109 132.65001515 -95.87277247 132.65573045 -98.71484375 132.66015625 C-100.05233925 132.66789818 -100.05233925 132.66789818 -101.41685486 132.67579651 C-103.53865601 132.67599177 -105.6603578 132.6246003 -107.78125 132.5625 C-109.48108081 130.86266919 -108.90734305 128.69442369 -108.90823364 126.36854553 C-108.91105347 125.24256454 -108.91387329 124.11658356 -108.91677856 122.95648193 C-108.91475433 121.71022034 -108.9127301 120.46395874 -108.91064453 119.17993164 C-108.91239685 117.87601974 -108.91414917 116.57210785 -108.91595459 115.22868347 C-108.9205289 111.64193655 -108.91873926 108.05521826 -108.9155755 104.46847081 C-108.91305136 100.7217725 -108.91538964 96.9750767 -108.91696167 93.2283783 C-108.91878343 86.93423012 -108.91637713 80.64009366 -108.91162109 74.34594727 C-108.90618082 67.06201521 -108.9079394 59.77811116 -108.9134475 52.49417979 C-108.91798126 46.24959163 -108.91862781 40.00501192 -108.91600883 33.76042265 C-108.91444721 30.0268266 -108.91424912 26.29324372 -108.91754532 22.55964851 C-108.9209625 18.39790303 -108.91622997 14.23620602 -108.91064453 10.07446289 C-108.91368088 8.20810684 -108.91368088 8.20810684 -108.91677856 6.30404663 C-108.91395874 5.17524582 -108.91113892 4.04644501 -108.90823364 2.88343811 C-108.90785662 1.89841844 -108.90747959 0.91339876 -108.90709114 -0.10146999 C-108.78125 -2.4375 -108.78125 -2.4375 -107.78125 -4.4375 C-94.25125 -4.4375 -80.72125 -4.4375 -66.78125 -4.4375 C-66.28625 0.0175 -66.28625 0.0175 -65.78125 4.5625 C-65.10320312 4.03140625 -64.42515625 3.5003125 -63.7265625 2.953125 C-44.55932235 -11.59486337 -20.66049955 -13.01894492 0 0 Z " fill="#010F1D" transform="translate(553.78125,44.4375)"/>
<path d="M0 0 C1.72974441 0.00015918 3.45949355 0.0058569 5.18920898 0.01586914 C6.09783188 0.01728409 7.00645477 0.01869904 7.94261169 0.02015686 C10.85687494 0.02577346 13.77106254 0.03832874 16.68530273 0.05102539 C18.65600475 0.05603825 20.62670797 0.06060153 22.59741211 0.06469727 C27.43923832 0.07574828 32.28100768 0.09302401 37.12280273 0.11352539 C37.13493301 1.54267021 37.13493301 1.54267021 37.14730835 3.00068665 C37.2250904 12.01837044 37.3129081 21.03590929 37.41032982 30.0534029 C37.46008813 34.68840405 37.5064185 39.32338463 37.54467773 43.95849609 C37.58179091 48.43900302 37.62821824 52.91932883 37.68086624 57.39967918 C37.6992729 59.10149111 37.7144304 60.80334165 37.7261467 62.50521278 C37.24731698 81.0457511 37.24731698 81.0457511 45.12280273 97.11352539 C50.53809396 101.7420915 56.92001018 101.71628879 63.77514648 101.49633789 C69.82375816 100.80466468 73.9074239 98.71790278 77.99780273 94.23852539 C85.38729279 83.37162825 83.29959188 67.75657305 83.43920898 55.09399414 C83.45983864 53.49831173 83.48083639 51.90263405 83.50218201 50.30696106 C83.55678325 46.15282063 83.6064596 41.99863612 83.6550293 37.84442139 C83.70570343 33.58707868 83.76114721 29.3297982 83.81616211 25.07250977 C83.92298322 16.75290127 84.02458958 8.43323994 84.12280273 0.11352539 C89.94351896 0.08887901 95.76420508 0.07069109 101.58496094 0.05859375 C103.56673715 0.05355272 105.54850962 0.04672001 107.53027344 0.03808594 C110.37232382 0.02601024 113.21432521 0.02029494 116.05639648 0.01586914 C116.94806015 0.01070786 117.83972382 0.00554657 118.75840759 0.00022888 C120.88020875 0.00003363 123.00191053 0.05142509 125.12280273 0.11352539 C126.87488671 1.86560937 126.25519611 4.16364738 126.2694397 6.49885559 C126.26898651 7.27122055 126.26853333 8.04358551 126.26806641 8.83935547 C126.27142502 9.64927948 126.27478363 10.45920349 126.27824402 11.29367065 C126.28779431 13.99014801 126.28970004 16.68656339 126.29077148 19.38305664 C126.29398441 21.25860113 126.29734851 23.13414537 126.30085754 25.00968933 C126.30686119 28.95503316 126.3086965 32.90035505 126.30810547 36.84570312 C126.3080045 41.87449094 126.32158333 46.90313549 126.33887768 51.93188953 C126.35006752 55.81408823 126.35202244 59.69625325 126.35149574 63.57846642 C126.35266818 65.43020808 126.35704815 67.28195084 126.36482811 69.13367653 C126.44558926 90.36674197 123.8735062 107.88374033 109.16967773 124.29321289 C95.10112766 138.09327919 76.47852798 141.64342923 57.49853516 141.53149414 C40.06139775 141.11393192 24.20849355 136.04248117 11.18530273 124.11352539 C7.230764 119.85252464 4.29312422 115.45819687 1.62280273 110.30102539 C1.30835205 109.69838867 0.99390137 109.09575195 0.66992188 108.47485352 C-5.46105734 95.53074175 -5.3032192 81.72172145 -5.20532227 67.75024414 C-5.20225786 65.82208911 -5.20038693 63.89393186 -5.199646 61.96577454 C-5.19507827 57.95772616 -5.18077759 53.94988269 -5.15844727 49.94189453 C-5.12991799 44.79472082 -5.1192071 39.64770594 -5.11476517 34.50046062 C-5.11062287 30.53465685 -5.10081945 26.56888531 -5.08889008 22.60309792 C-5.08318421 20.70319692 -5.07842655 18.80329283 -5.07462311 16.90338707 C-5.0677902 14.26593848 -5.05417876 11.62861877 -5.03833008 8.99121094 C-5.03721222 8.20328659 -5.03609436 7.41536224 -5.03494263 6.6035614 C-4.98323838 0.14591058 -4.98323838 0.14591058 0 0 Z " fill="#010F1D" transform="translate(596.877197265625,39.886474609375)"/>
<path d="M0 0 C13.53 0 27.06 0 41 0 C41 3.63 41 7.26 41 11 C40.01 10.67 39.02 10.34 38 10 C38.33 7.36 38.66 4.72 39 2 C26.79 2 14.58 2 2 2 C2 45.89 2 89.78 2 135 C14.21 135 26.42 135 39 135 C38.90460938 129.62976563 38.80921875 124.25953125 38.7109375 118.7265625 C38.65506306 115.30860382 38.59982803 111.8906584 38.546875 108.47265625 C38.46290824 103.05667606 38.37667622 97.64080304 38.27636719 92.22509766 C38.19557447 87.85504957 38.12543094 83.48494442 38.06242752 79.11460495 C38.03665904 77.45373698 38.00716179 75.79292221 37.97373581 74.1321907 C37.74855956 62.78552976 37.80953678 52.38092644 43 42 C43.495 40.96875 43.99 39.9375 44.5 38.875 C48.8858465 33.83127653 54.49938342 31.51217673 61.0703125 30.55078125 C69.32992863 30.24447835 75.56464431 32.08741583 81.875 37.4375 C87 43.61764706 87 43.61764706 87 47 C86.34 47 85.68 47 85 47 C84.46375 45.9275 83.9275 44.855 83.375 43.75 C80.4286476 38.65054392 76.76835905 36.61892567 71.25 34.6875 C65.25976471 33.40223879 59.49517486 34.13628563 53.75 36.125 C48.73900765 39.54158569 44.63392414 44.05845768 43 50 C42.14750071 55.06157804 41.83546015 60.01611295 41.79467773 65.13842773 C41.78477814 65.91973557 41.77487854 66.7010434 41.76467896 67.50602722 C41.73332057 70.0651862 41.70840905 72.62436369 41.68359375 75.18359375 C41.66300201 76.96721352 41.64200498 78.75082865 41.62062073 80.53443909 C41.56562926 85.21145861 41.51611961 89.88852049 41.46777344 94.56561279 C41.41739023 99.34521215 41.36179226 104.12475058 41.30664062 108.90429688 C41.19933977 118.26947911 41.09783336 127.63471441 41 137 C35.17928378 137.02464638 29.35859766 137.0428343 23.5378418 137.05493164 C21.55606559 137.05997267 19.57429311 137.06680538 17.5925293 137.07543945 C14.75047891 137.08751515 11.90847753 137.09323045 9.06640625 137.09765625 C7.72891075 137.10539818 7.72891075 137.10539818 6.36439514 137.11329651 C4.24259399 137.11349177 2.1208922 137.0621003 0 137 C-1.69983081 135.30016919 -1.12609305 133.13192369 -1.12698364 130.80604553 C-1.12980347 129.68006454 -1.13262329 128.55408356 -1.13552856 127.39398193 C-1.13350433 126.14772034 -1.1314801 124.90145874 -1.12939453 123.61743164 C-1.13114685 122.31351974 -1.13289917 121.00960785 -1.13470459 119.66618347 C-1.1392789 116.07943655 -1.13748926 112.49271826 -1.1343255 108.90597081 C-1.13180136 105.1592725 -1.13413964 101.4125767 -1.13571167 97.6658783 C-1.13753343 91.37173012 -1.13512713 85.07759366 -1.13037109 78.78344727 C-1.12493082 71.49951521 -1.1266894 64.21561116 -1.1321975 56.93167979 C-1.13673126 50.68709163 -1.13737781 44.44251192 -1.13475883 38.19792265 C-1.13319721 34.4643266 -1.13299912 30.73074372 -1.13629532 26.99714851 C-1.1397125 22.83540303 -1.13497997 18.67370602 -1.12939453 14.51196289 C-1.13141876 13.26772552 -1.13344299 12.02348816 -1.13552856 10.74154663 C-1.13270874 9.61274582 -1.12988892 8.48394501 -1.12698364 7.32093811 C-1.12660662 6.33591844 -1.12622959 5.35089876 -1.12584114 4.33603001 C-1 2 -1 2 0 0 Z " fill="#02030C" transform="translate(446,40)"/>
<path d="M0 0 C1.7297444 0.00025116 3.45949379 0.00581496 5.18920898 0.01586914 C5.99418823 0.01687622 6.79916748 0.0178833 7.62854004 0.0189209 C10.64747534 0.02416925 13.66639041 0.0381304 16.68530273 0.05102539 C23.42967773 0.07165039 30.17405273 0.09227539 37.12280273 0.11352539 C36.79280273 26.84352539 36.46280273 53.57352539 36.12280273 81.11352539 C35.79280273 81.11352539 35.46280273 81.11352539 35.12280273 81.11352539 C35.12280273 55.04352539 35.12280273 28.97352539 35.12280273 2.11352539 C22.91280273 2.11352539 10.70280273 2.11352539 -1.87719727 2.11352539 C-1.93543275 16.62133017 -1.93543275 16.62133017 -1.97485352 31.12915039 C-1.98677838 37.05203871 -2.00083908 42.9748648 -2.02807617 48.89770508 C-2.04991237 53.67635909 -2.06178851 58.45494631 -2.06695175 63.23364639 C-2.07062824 65.05076269 -2.07780719 66.8678756 -2.08865738 68.68496323 C-2.19911873 82.02116424 -2.19911873 82.02116424 0.12280273 95.11352539 C0.35741211 96.22083008 0.59202148 97.32813477 0.83374023 98.46899414 C2.20691218 104.32516864 3.69648888 109.13984398 7.12280273 114.11352539 C7.78280273 114.44352539 8.44280273 114.77352539 9.12280273 115.11352539 C9.74780273 117.67602539 9.74780273 117.67602539 10.12280273 120.11352539 C10.78280273 120.11352539 11.44280273 120.11352539 12.12280273 120.11352539 C13.47781193 121.42482461 14.80951617 122.76044226 16.12280273 124.11352539 C17.60780273 125.10352539 17.60780273 125.10352539 19.12280273 126.11352539 C19.12280273 126.77352539 19.12280273 127.43352539 19.12280273 128.11352539 C19.80342773 128.38165039 20.48405273 128.64977539 21.18530273 128.92602539 C25.61983495 130.71870862 30.01476186 132.5703681 34.31030273 134.67602539 C42.46932593 138.10102194 51.58669996 138.31022082 60.31030273 138.80102539 C61.16076172 138.84952637 62.0112207 138.89802734 62.88745117 138.94799805 C64.96426815 139.0471553 67.04380252 139.08597493 69.12280273 139.11352539 C69.45280273 138.78352539 69.78280273 138.45352539 70.12280273 138.11352539 C71.88977116 137.83753032 73.66176489 137.59355624 75.43530273 137.36352539 C85.66087245 135.71384866 98.93137318 131.21287312 105.86499023 123.06665039 C107.15918748 121.05702734 107.56821106 119.41111949 108.12280273 117.11352539 C108.78280273 116.78352539 109.44280273 116.45352539 110.12280273 116.11352539 C110.45280273 115.45352539 110.78280273 114.79352539 111.12280273 114.11352539 C111.78280273 114.11352539 112.44280273 114.11352539 113.12280273 114.11352539 C114.82961221 112.48799256 116.49940468 110.82236544 118.12280273 109.11352539 C117.02103731 117.0629721 110.67372766 123.36006746 104.66967773 128.35180664 C86.43603511 140.96434164 65.21808461 143.91125124 43.47827148 140.49243164 C29.11289198 137.62758019 14.86388577 130.07444753 6.12280273 118.11352539 C4.47285875 115.57946559 3.01287439 112.98566015 1.62280273 110.30102539 C1.30835205 109.69838867 0.99390137 109.09575195 0.66992188 108.47485352 C-5.46105734 95.53074175 -5.3032192 81.72172145 -5.20532227 67.75024414 C-5.20225786 65.82208911 -5.20038693 63.89393186 -5.199646 61.96577454 C-5.19507827 57.95772616 -5.18077759 53.94988269 -5.15844727 49.94189453 C-5.12991799 44.79472082 -5.1192071 39.64770594 -5.11476517 34.50046062 C-5.11062287 30.53465685 -5.10081945 26.56888531 -5.08889008 22.60309792 C-5.08318421 20.70319692 -5.07842655 18.80329283 -5.07462311 16.90338707 C-5.0677902 14.26593848 -5.05417876 11.62861877 -5.03833008 8.99121094 C-5.03721222 8.20328659 -5.03609436 7.41536224 -5.03494263 6.6035614 C-4.98323838 0.14591058 -4.98323838 0.14591058 0 0 Z " fill="#050711" transform="translate(596.877197265625,39.886474609375)"/>
<path d="M0 0 C3.50091275 3.26234025 5.85473989 6.78680507 7.46484375 11.296875 C7.46484375 12.286875 7.46484375 13.276875 7.46484375 14.296875 C6.80484375 14.296875 6.14484375 14.296875 5.46484375 14.296875 C5.17351562 13.63300781 4.8821875 12.96914062 4.58203125 12.28515625 C0.9393143 4.4384232 -2.39793753 0.32881085 -10.59082031 -3.08129883 C-13.84745186 -4.12281572 -17.09229507 -4.14776473 -20.47265625 -4.078125 C-21.52706909 -4.06507324 -21.52706909 -4.06507324 -22.6027832 -4.05175781 C-30.11004963 -3.83923049 -36.15766008 -2.2259589 -41.53515625 3.296875 C-50.34481597 15.56381397 -48.86841256 30.76663716 -48.94921875 45.15234375 C-48.96795408 47.2665531 -48.98752921 49.38075516 -49.00790405 51.49494934 C-49.05898146 57.02678099 -49.09873698 62.55863682 -49.13604736 68.09057617 C-49.18332269 74.74550641 -49.24481496 81.40031898 -49.30389404 88.05515289 C-49.39180851 98.13567879 -49.46178598 108.21618554 -49.53515625 118.296875 C-65.04515625 118.296875 -80.55515625 118.296875 -96.53515625 118.296875 C-96.65548268 92.12364864 -96.65548268 92.12364864 -96.68164062 80.95898438 C-96.69956746 73.34360476 -96.72076548 65.72833346 -96.76147461 58.11303711 C-96.79409284 51.97278214 -96.81201461 45.83264335 -96.81978798 39.69230843 C-96.82532701 37.35077142 -96.83614337 35.00924071 -96.85234642 32.66775322 C-96.87415296 29.38570333 -96.87712176 26.10413227 -96.87573242 22.82202148 C-96.88651825 21.85601013 -96.89730408 20.88999878 -96.90841675 19.89471436 C-96.88259216 14.24934671 -96.149124 10.32108021 -93.53515625 5.296875 C-92.20162111 7.96394527 -92.64567053 9.55828835 -92.95288086 12.5300293 C-93.80603063 22.5282604 -93.76956061 32.53759142 -93.8515625 42.56640625 C-93.87217367 44.70017358 -93.89317111 46.83393722 -93.91453552 48.96769714 C-93.96932683 54.54225642 -94.01892268 60.11684986 -94.06738281 65.69146729 C-94.12682279 72.40231249 -94.19281084 79.11309621 -94.2576828 85.82389069 C-94.35515074 95.98151409 -94.44437631 106.13917972 -94.53515625 116.296875 C-80.34515625 116.296875 -66.15515625 116.296875 -51.53515625 116.296875 C-51.55835938 109.3153125 -51.5815625 102.33375 -51.60546875 95.140625 C-51.61569088 90.71093377 -51.62531906 86.28125713 -51.6328125 81.8515625 C-51.64475616 74.82451345 -51.65886794 67.79751665 -51.68603516 60.77050781 C-51.70780642 55.10357593 -51.71973396 49.4367001 -51.72491074 43.76972961 C-51.72859879 41.6104494 -51.73580061 39.45117217 -51.74661636 37.29191589 C-51.76118808 34.26160106 -51.7631318 31.23151625 -51.76220703 28.20117188 C-51.76939758 27.31356171 -51.77658813 26.42595154 -51.78399658 25.51144409 C-51.76621968 20.10863473 -51.04891846 15.4885503 -49.53515625 10.296875 C-48.87515625 10.296875 -48.21515625 10.296875 -47.53515625 10.296875 C-47.43332031 9.55566406 -47.33148438 8.81445312 -47.2265625 8.05078125 C-45.91373403 2.82171871 -41.9110117 -1.10399153 -37.50390625 -4.0703125 C-24.7587578 -10.78602534 -11.05607638 -8.49751733 0 0 Z " fill="#010208" transform="translate(109.53515625,58.703125)"/>
<path d="M0 0 C1.19367188 -0.02578125 2.38734375 -0.0515625 3.6171875 -0.078125 C9.16378275 0.44071019 13.28128698 3.20158654 17.875 6.1875 C19.01195312 6.91259766 19.01195312 6.91259766 20.171875 7.65234375 C22.30211894 9.39488329 23.07093608 10.73914019 24.125 13.25 C24.62 14.11625 25.115 14.9825 25.625 15.875 C28.92894473 23.30887563 29.41988668 31.0646954 29.35205078 39.10595703 C29.35234283 40.0340065 29.35263489 40.96205597 29.35293579 41.91822815 C29.35155615 44.94818885 29.33606001 47.97789541 29.3203125 51.0078125 C29.31657751 53.12344224 29.31373283 55.23907372 29.31173706 57.35470581 C29.30413892 62.89486555 29.28452356 68.43491869 29.2623291 73.97503662 C29.23816989 80.63735756 29.2290715 87.29971435 29.21742249 93.96206665 C29.19809671 104.05811834 29.15974745 114.1539366 29.125 124.25 C43.315 124.25 57.505 124.25 72.125 124.25 C72.125 91.91 72.125 59.57 72.125 26.25 C72.455 26.25 72.785 26.25 73.125 26.25 C73.125 59.25 73.125 92.25 73.125 126.25 C57.945 126.25 42.765 126.25 27.125 126.25 C25.19077647 124.31577647 25.99388693 121.40210169 25.98155212 118.82707214 C25.98208084 117.90195328 25.98260956 116.97683441 25.9831543 116.02368164 C25.97967987 115.05448792 25.97620544 114.08529419 25.97262573 113.08673096 C25.96525186 110.97287131 25.95991522 108.85900383 25.95633507 106.74513435 C25.94918502 103.39435138 25.93352664 100.04371617 25.91499329 96.69297791 C25.86247481 87.16244615 25.81459822 77.63199149 25.79907227 68.10131836 C25.78896144 62.27744754 25.75954987 56.45394257 25.71775246 50.6302166 C25.70547332 48.41401379 25.70031553 46.19775921 25.70255089 43.98152351 C25.70491731 40.86757913 25.68263213 37.75467272 25.6550293 34.64086914 C25.66163071 33.73396835 25.66823212 32.82706757 25.67503357 31.89268494 C25.54226273 22.71165642 22.65393362 14.77893362 16.125 8.25 C11.63440256 5.07372376 7.78124507 4.17688279 2.359375 3.93359375 C1.46992188 3.89169922 0.58046875 3.84980469 -0.3359375 3.80664062 C-1.25632813 3.76732422 -2.17671875 3.72800781 -3.125 3.6875 C-4.06085938 3.64431641 -4.99671875 3.60113281 -5.9609375 3.55664062 C-8.26548641 3.4508195 -10.57013839 3.34873443 -12.875 3.25 C-9.22415815 -0.40084185 -4.98444529 0.06431542 0 0 Z " fill="#03040E" transform="translate(195.875,50.75)"/>
<path d="M0 0 C2.03383352 3.05075029 2.24936221 3.6215043 2.24050903 7.04325867 C2.24325836 7.8635556 2.24600769 8.68385254 2.24884033 9.52900696 C2.24164978 10.42524277 2.23445923 11.32147858 2.22705078 12.24487305 C2.22734283 13.19140747 2.22763489 14.13794189 2.22793579 15.11315918 C2.22654091 18.24610518 2.21097217 21.37881423 2.1953125 24.51171875 C2.19158294 26.68219371 2.1887357 28.85267034 2.18673706 31.02314758 C2.17909617 36.73931517 2.15944371 42.45538132 2.1373291 48.17150879 C2.11328607 55.02805739 2.10409187 61.88463988 2.09242249 68.74121857 C2.07301964 79.16088295 2.03470012 89.58032472 2 100 C16.52 100 31.04 100 46 100 C45.98259766 90.285625 45.98259766 90.285625 45.96484375 80.375 C45.95973229 76.26432191 45.95491817 72.15364776 45.95117188 68.04296875 C45.94520158 61.52294091 45.93814978 55.00292715 45.92456055 48.48291016 C45.91366971 43.22446539 45.90771004 37.96603574 45.90512276 32.70758057 C45.90327967 30.70460777 45.89968061 28.70163577 45.89426994 26.69866943 C45.88697725 23.88633456 45.88601252 21.0740616 45.88647461 18.26171875 C45.88287933 17.43956375 45.87928406 16.61740875 45.87557983 15.77033997 C45.88444684 10.7604833 46.28538098 5.96001302 47 1 C47.66 1.33 48.32 1.66 49 2 C49.02313183 14.74306797 49.0409194 27.48613097 49.05181217 40.22921562 C49.05703915 46.14581924 49.06413347 52.06240853 49.07543945 57.97900391 C49.08627487 63.68480699 49.09227823 69.39059627 49.09487724 75.09640884 C49.09673031 77.27738792 49.10034866 79.45836622 49.10573006 81.63933945 C49.11294914 84.68519497 49.11399057 87.73099282 49.11352539 90.77685547 C49.11712067 91.68603729 49.12071594 92.59521912 49.12442017 93.5319519 C49.11405216 99.77189568 49.11405216 99.77189568 48 102 C41.3247966 102.02526945 34.64960543 102.04283268 27.97436523 102.05493164 C25.70157409 102.05997325 23.4287862 102.06680637 21.15600586 102.07543945 C17.89696449 102.08751261 14.63796583 102.09322987 11.37890625 102.09765625 C10.35599991 102.10281754 9.33309357 102.10797882 8.27919006 102.11329651 C7.33829025 102.11337204 6.39739044 102.11344757 5.42797852 102.11352539 C4.59524918 102.115746 3.76251984 102.11796661 2.90455627 102.12025452 C1 102 1 102 0 101 C-0.09534958 97.86440114 -0.12550879 94.75086387 -0.11352539 91.61499023 C-0.11367142 90.62973358 -0.11381744 89.64447693 -0.1139679 88.62936401 C-0.11326832 85.35575193 -0.10547385 82.08219596 -0.09765625 78.80859375 C-0.09579223 76.54557832 -0.09436825 74.28256249 -0.09336853 72.01954651 C-0.0895421 66.05021052 -0.07971075 60.08089868 -0.06866455 54.11157227 C-0.05845312 48.02555671 -0.05387149 41.93953727 -0.04882812 35.85351562 C-0.03808859 23.90233311 -0.02101068 11.95116856 0 0 Z " fill="#080B13" transform="translate(117,75)"/>
<path d="M0 0 C5.82071622 -0.02464638 11.64140234 -0.0428343 17.4621582 -0.05493164 C19.44393441 -0.05997267 21.42570689 -0.06680538 23.4074707 -0.07543945 C26.24952109 -0.08751515 29.09152247 -0.09323045 31.93359375 -0.09765625 C32.82525742 -0.10281754 33.71692108 -0.10797882 34.63560486 -0.11329651 C36.75740601 -0.11349177 38.8791078 -0.0621003 41 0 C43.01172736 2.01172736 42.15721192 6.10998935 42.16113281 8.86865234 C42.16858017 10.10522331 42.16858017 10.10522331 42.17617798 11.36677551 C42.1908382 14.10650452 42.19760805 16.84617564 42.203125 19.5859375 C42.20887336 21.48304243 42.21463113 23.38014733 42.22039795 25.2772522 C42.23091899 29.2603584 42.2367544 33.24344435 42.24023438 37.2265625 C42.24572085 42.33700713 42.26974748 47.44718554 42.29820633 52.55754662 C42.31680633 56.47798449 42.3220369 60.39835793 42.32357025 64.31883621 C42.32660338 66.20314616 42.33465403 68.0874548 42.34775543 69.97172165 C42.36476074 72.60554139 42.36294932 75.23870663 42.35644531 77.87255859 C42.37026749 79.04624245 42.37026749 79.04624245 42.3843689 80.24363708 C42.34322462 85.54726855 42.34322462 85.54726855 40.47772217 88.00796509 C39.99007385 88.33533661 39.50242554 88.66270813 39 89 C38.97686492 77.95192216 38.95907894 66.90385005 38.94818783 55.85575294 C38.94296156 50.72609224 38.93586854 45.59644806 38.92456055 40.46679688 C38.9137226 35.51960461 38.90772123 30.57242828 38.90512276 25.62522507 C38.90327015 23.73451868 38.89965267 21.84381319 38.89426994 19.95311356 C38.8870475 17.31198467 38.88600957 14.67092227 38.88647461 12.02978516 C38.88287933 11.24216293 38.87928406 10.45454071 38.87557983 9.64305115 C38.88594784 4.22810432 38.88594784 4.22810432 40 2 C27.46 2 14.92 2 2 2 C2 28.73 2 55.46 2 83 C1.34 82.67 0.68 82.34 0 82 C-2.08997477 73.52102229 -1.03372718 63.95826409 -0.87890625 55.2734375 C-0.85455634 53.67347962 -0.83071538 52.07351393 -0.80735779 50.47354126 C-0.74500077 46.29456567 -0.67580137 42.11573132 -0.60510254 37.93688965 C-0.53397758 33.65981389 -0.46942639 29.38263926 -0.40429688 25.10546875 C-0.27590974 16.73686955 -0.14028289 8.36840821 0 0 Z " fill="#05070F" transform="translate(681,40)"/>
<path d="M0 0 C3.7745405 3.7745405 3.58377737 6.57968437 3.75 11.625 C3.78528809 12.43445068 3.82057617 13.24390137 3.85693359 14.07788086 C4.05409067 19.48989694 3.97170238 24.65563691 3 30 C1.46690279 31.53309721 0.06949467 31.14020883 -2.0684967 31.15821838 C-3.38316673 31.17290161 -3.38316673 31.17290161 -4.72439575 31.18788147 C-5.69327728 31.19363693 -6.66215881 31.1993924 -7.66040039 31.20532227 C-8.67491776 31.21522186 -9.68943512 31.22512146 -10.73469543 31.23532104 C-14.10565821 31.26704128 -17.4766351 31.2917349 -20.84765625 31.31640625 C-23.17793658 31.3369667 -25.5082131 31.35796292 -27.83848572 31.37937927 C-33.98533047 31.43469386 -40.13220939 31.4840616 -46.27911377 31.53222656 C-52.54613299 31.58237323 -58.81310231 31.63809488 -65.08007812 31.69335938 C-77.38667617 31.80105569 -89.69331745 31.902475 -102 32 C-102.33 31.34 -102.66 30.68 -103 30 C-100.67894887 28.83947444 -99.26491708 28.84557153 -96.6784668 28.79467773 C-95.77567993 28.77474258 -94.87289307 28.75480743 -93.94274902 28.73426819 C-92.46095154 28.70918434 -92.46095154 28.70918434 -90.94921875 28.68359375 C-89.91953979 28.66272202 -88.88986084 28.64185028 -87.82897949 28.62034607 C-84.44856536 28.55385861 -81.06807579 28.49514352 -77.6875 28.4375 C-76.53996246 28.41665344 -75.39242493 28.39580688 -74.21011353 28.37432861 C-59.20317806 28.10263518 -44.19698353 27.89908013 -29.1875 27.875 C-28.08503433 27.87111771 -28.08503433 27.87111771 -26.96029663 27.86715698 C-24.86280561 27.86125641 -22.76546114 27.86287423 -20.66796875 27.8671875 C-19.51578857 27.86831543 -18.3636084 27.86944336 -17.17651367 27.87060547 C-11.10890256 28.05858898 -5.05509539 28.56749319 1 29 C0.67 19.43 0.34 9.86 0 0 Z " fill="#02040A" transform="translate(427,90)"/>
<path d="M0 0 C5.29748421 0.645743 7.56776619 4.68028001 10.68359375 8.6328125 C20.60705486 22.44758528 24.17573937 38.80892941 24.11352539 55.52514648 C24.11367142 56.56004715 24.11381744 57.59494781 24.1139679 58.66120911 C24.11327407 62.06452569 24.10550652 65.46778679 24.09765625 68.87109375 C24.09579019 71.23763499 24.09436717 73.60417662 24.09336853 75.97071838 C24.08955818 82.18656488 24.07974056 88.40238786 24.06866455 94.6182251 C24.05841855 100.96618329 24.05386408 107.31414529 24.04882812 113.66210938 C24.03811695 126.10808323 24.02105835 138.55403965 24 151 C23.67 151 23.34 151 23 151 C22.67 128.56 22.34 106.12 22 83 C21.67 83 21.34 83 21 83 C20.98541748 81.79577393 20.97083496 80.59154785 20.95581055 79.35083008 C20.89722865 74.82353054 20.82000712 70.29669773 20.73754883 65.76977539 C20.70457816 63.82161106 20.67646248 61.87335758 20.65356445 59.92504883 C20.69257419 43.69416864 20.69257419 43.69416864 17 28 C16.34 27.67 15.68 27.34 15 27 C14.578125 25.25 14.578125 25.25 14.25 23 C13.11941526 17.40048977 10.4219617 13.48974827 7 9 C6.29037109 8.06027344 6.29037109 8.06027344 5.56640625 7.1015625 C4.44235797 5.68065873 3.2288766 4.33128298 2 3 C1.34 3 0.68 3 0 3 C0 2.01 0 1.02 0 0 Z M-2 3 C0 4 0 4 0 4 Z " fill="#0B0E15" transform="translate(246,26)"/>
<path d="M0 0 C0.33 0 0.66 0 1 0 C1.33 30.03 1.66 60.06 2 91 C-11.86 91 -25.72 91 -40 91 C-41.125 79.75 -41.125 79.75 -40.5625 73.875 C-40.40974609 72.20050781 -40.40974609 72.20050781 -40.25390625 70.4921875 C-40.17011719 69.66976562 -40.08632813 68.84734375 -40 68 C-39.34 68 -38.68 68 -38 68 C-38 74.93 -38 81.86 -38 89 C-25.46 89 -12.92 89 0 89 C0 59.63 0 30.26 0 0 Z " fill="#000108" transform="translate(574,86)"/>
<path d="M0 0 C13.50955597 0.23857935 25.0504492 5.64943728 35.1875 14.375 C43.62773913 24.09406324 49.43726038 35.38746031 49.1875 48.375 C48.1975 48.87 48.1975 48.87 47.1875 49.375 C47.1875 47.725 47.1875 46.075 47.1875 44.375 C46.548125 44.106875 45.90875 43.83875 45.25 43.5625 C43.1875 42.375 43.1875 42.375 42.1875 39.375 C42.55875 38.6325 42.93 37.89 43.3125 37.125 C44.53867101 34.21212885 44.53867101 34.21212885 42.9375 30.6875 C41.4088089 27.39969911 41.4088089 27.39969911 39.1875 25.375 C39.1875 24.385 39.1875 23.395 39.1875 22.375 C38.1975 22.375 37.2075 22.375 36.1875 22.375 C35.960625 21.6325 35.73375 20.89 35.5 20.125 C32.9216341 14.72270954 26.52103149 10.95346225 21.1875 8.375 C20.1975 8.87 20.1975 8.87 19.1875 9.375 C18.81625 8.91351563 18.445 8.45203125 18.0625 7.9765625 C11.86931285 2.68654848 0.03685304 2.83117483 -7.8125 2.375 C-5.13666188 -0.30083812 -3.73964383 0.04521939 0 0 Z " fill="#060911" transform="translate(525.8125,35.625)"/>
<path d="M0 0 C0.99 0.33 1.98 0.66 3 1 C-13.16352221 16.18493736 -30.26179354 24.64771988 -52.8125 24.4375 C-53.94888916 24.43065186 -55.08527832 24.42380371 -56.25610352 24.41674805 C-69.34298232 24.16757193 -80.31319762 20.92844029 -92 15 C-88.62527526 13.87509175 -87.85527939 14.12257987 -84.5859375 15.1796875 C-83.74289062 15.44910156 -82.89984375 15.71851563 -82.03125 15.99609375 C-81.1546875 16.28613281 -80.278125 16.57617188 -79.375 16.875 C-78.49070312 17.15730469 -77.60640625 17.43960938 -76.6953125 17.73046875 C-70.15198058 19.84801942 -70.15198058 19.84801942 -69 21 C-66.9368526 21.10018949 -64.87026517 21.13081291 -62.8046875 21.1328125 C-60.89429688 21.13474609 -60.89429688 21.13474609 -58.9453125 21.13671875 C-58.27661133 21.13462402 -57.60791016 21.1325293 -56.91894531 21.13037109 C-54.90421823 21.12507678 -52.8897196 21.13028669 -50.875 21.13671875 C-49.59367187 21.13542969 -48.31234375 21.13414062 -46.9921875 21.1328125 C-45.23430908 21.13112061 -45.23430908 21.13112061 -43.44091797 21.12939453 C-38.19842295 20.93225232 -33.45740249 20.61216589 -28.875 17.9375 C-25.76405659 16.26097991 -23.60379152 15.54952606 -20 16 C-19.67 15.01 -19.34 14.02 -19 13 C-17.01751285 12.28293018 -15.01584651 11.61709587 -13 11 C-12.34 10.34 -11.68 9.68 -11 9 C-9.84915372 8.10429417 -8.68091964 7.23066635 -7.5 6.375 C-6.8915625 5.92898437 -6.283125 5.48296875 -5.65625 5.0234375 C-4 4 -4 4 -2 4 C-1.34 2.68 -0.68 1.36 0 0 Z " fill="#1A5C0C" transform="translate(1080,157)"/>
<path d="M0 0 C0.99 0 1.98 0 3 0 C3 3.3 3 6.6 3 10 C2.01 10.495 2.01 10.495 1 11 C0.34 9.68 -0.32 8.36 -1 7 C-2.74373792 12.73867329 -4.48513892 18.47804931 -6.22460938 24.21801758 C-6.81352506 26.16025767 -7.40301968 28.10232234 -7.99316406 30.04418945 C-12.13023183 43.65909591 -16.1327641 57.30596426 -20 71 C-20.66 71 -21.32 71 -22 71 C-21.88382356 69.62422639 -21.75654223 68.24938955 -21.625 66.875 C-21.55539062 66.10929687 -21.48578125 65.34359375 -21.4140625 64.5546875 C-20.92777046 61.55435735 -19.9741637 58.88035225 -19 56 C-17.71781839 51.85836997 -16.47051648 47.70632258 -15.22363281 43.55395508 C-14.63579445 41.59840961 -14.04453394 39.64392121 -13.453125 37.68945312 C-12.4795969 34.46167183 -11.52417317 31.22897573 -10.58166504 27.99200439 C-10.18330247 26.62774844 -9.78100657 25.26463659 -9.37536621 23.90252686 C-8.76533228 21.84361775 -8.1735298 19.78025441 -7.5859375 17.71484375 C-7.23321777 16.49788818 -6.88049805 15.28093262 -6.51708984 14.02709961 C-5.61490634 10.83351852 -5.61490634 10.83351852 -8 8 C-7.34 7.34 -6.68 6.68 -6 6 C-4.68 6 -3.36 6 -2 6 C-2 4.68 -2 3.36 -2 2 C-1.34 2 -0.68 2 0 2 C0 1.34 0 0.68 0 0 Z " fill="#175F0E" transform="translate(843,96)"/>
<path d="M0 0 C3.50091275 3.26234025 5.85473989 6.78680507 7.46484375 11.296875 C7.46484375 12.286875 7.46484375 13.276875 7.46484375 14.296875 C6.80484375 14.296875 6.14484375 14.296875 5.46484375 14.296875 C5.17351562 13.63300781 4.8821875 12.96914062 4.58203125 12.28515625 C0.9393143 4.4384232 -2.39793753 0.32881085 -10.59082031 -3.08129883 C-13.84745186 -4.12281572 -17.09229507 -4.14776473 -20.47265625 -4.078125 C-21.52706909 -4.06507324 -21.52706909 -4.06507324 -22.6027832 -4.05175781 C-30.11004963 -3.83923049 -36.15766008 -2.2259589 -41.53515625 3.296875 C-46.01241514 9.53119769 -47.59089075 15.75684455 -48.53515625 23.296875 C-48.86515625 23.296875 -49.19515625 23.296875 -49.53515625 23.296875 C-49.73066963 21.69366526 -49.91627608 20.08924514 -50.09765625 18.484375 C-50.20207031 17.59105469 -50.30648437 16.69773437 -50.4140625 15.77734375 C-50.53515625 13.296875 -50.53515625 13.296875 -49.53515625 10.296875 C-48.87515625 10.296875 -48.21515625 10.296875 -47.53515625 10.296875 C-47.43332031 9.55566406 -47.33148438 8.81445312 -47.2265625 8.05078125 C-45.91373403 2.82171871 -41.9110117 -1.10399153 -37.50390625 -4.0703125 C-24.7587578 -10.78602534 -11.05607638 -8.49751733 0 0 Z " fill="#050811" transform="translate(109.53515625,58.703125)"/>
<path d="M0 0 C0.33 0 0.66 0 1 0 C1.20004825 10.3786251 1.38378671 20.7573976 1.54658794 31.13667774 C1.6226947 35.95596933 1.70446078 40.7750275 1.79907227 45.59399414 C1.89013585 50.24278242 1.96644867 54.89159842 2.03244972 59.54080772 C2.06026523 61.31634266 2.09343531 63.09180189 2.13199425 64.867136 C2.1850139 67.34999572 2.21914969 69.83244041 2.2487793 72.31567383 C2.26891586 73.05294708 2.28905243 73.79022034 2.30979919 74.54983521 C2.34149733 79.55378732 2.34149733 79.55378732 0.48445129 81.98027039 C-0.00541763 82.31678116 -0.49528656 82.65329193 -1 83 C-1.02323929 73.50703876 -1.04097393 64.01408741 -1.05181217 54.52110386 C-1.05701574 50.11244764 -1.0640672 45.70381098 -1.07543945 41.29516602 C-1.0863585 37.03522997 -1.09229584 32.77531266 -1.09487724 28.51536369 C-1.09671531 26.89559573 -1.10030441 25.27582872 -1.10573006 23.6560688 C-1.13126945 15.71074272 -1.13415283 7.88412814 0 0 Z " fill="#010309" transform="translate(721,46)"/>
<path d="M0 0 C0.33 0 0.66 0 1 0 C1.78357528 6.71132509 2.14869786 13.31176933 2.1328125 20.06640625 C2.13376923 20.98534164 2.13472595 21.90427704 2.13571167 22.85105896 C2.13638696 24.77790394 2.13457852 26.70475129 2.13037109 28.6315918 C2.12500736 31.55848353 2.13034156 34.48522228 2.13671875 37.41210938 C2.13605797 39.29687533 2.13477682 41.1816412 2.1328125 43.06640625 C2.13483673 43.92915665 2.13686096 44.79190704 2.13894653 45.68080139 C2.11795986 51.19308844 1.69329062 56.53043963 1 62 C0.34 61.67 -0.32 61.34 -1 61 C-1.02537991 53.27702538 -1.04287951 45.55406153 -1.05493164 37.83105469 C-1.05995667 35.20442299 -1.06677774 32.57779409 -1.07543945 29.95117188 C-1.08758507 26.17317007 -1.09324667 22.39520529 -1.09765625 18.6171875 C-1.10281754 17.44509735 -1.10797882 16.2730072 -1.11329651 15.06539917 C-1.11337204 13.964711 -1.11344757 12.86402283 -1.11352539 11.72998047 C-1.115746 10.76623505 -1.11796661 9.80248962 -1.12025452 8.80953979 C-0.99169966 5.8060769 -0.55092001 2.95282758 0 0 Z " fill="#00020D" transform="translate(534,91)"/>
<path d="M0 0 C1.32 0 2.64 0 4 0 C4 0.99 4 1.98 4 3 C4.99 2.67 5.98 2.34 7 2 C7.33 2.66 7.66 3.32 8 4 C7.67 4.66 7.34 5.32 7 6 C9.49362885 7.39643215 11.63862567 8.16255926 14.4375 8.875 C18 10 18 10 20.3671875 11.9375 C31.41694932 20.59369324 49.70232879 19.26207374 63 20 C63 20.33 63 20.66 63 21 C44.40226735 24.54242527 25.78082695 20.27283749 10 10 C1.34803922 4.04411765 1.34803922 4.04411765 0 0 Z " fill="#04060F" transform="translate(306,159)"/>
<path d="M0 0 C2.24407571 3.51210362 2.01857695 5.67152173 1.1875 9.6875 C0.89939453 11.14736328 0.89939453 11.14736328 0.60546875 12.63671875 C0 15 0 15 -1 16 C-1.95528893 28.51139022 -1.64549326 40.9679834 2 53 C2.35095968 54.66304425 2.68986085 56.32886189 3 58 C-2.58715892 54.27522739 -3.15373745 46.05096172 -4.4765625 39.71875 C-5.8065451 30.7508673 -5.17517033 21.93598731 -3.625 13.0625 C-3.49899414 12.34070557 -3.37298828 11.61891113 -3.24316406 10.87524414 C-2.52635836 7.04945013 -1.59869632 3.55188617 0 0 Z " fill="#070812" transform="translate(290,81)"/>
<path d="M0 0 C1.42794947 2.70418124 2.48785902 5.31247485 3.34448242 8.24609375 C3.58780807 9.07375244 3.83113373 9.90141113 4.08183289 10.75415039 C4.33713272 11.63965576 4.59243256 12.52516113 4.85546875 13.4375 C5.12136307 14.3545874 5.38725739 15.2716748 5.66120911 16.21655273 C6.22055475 18.15253456 6.7776894 20.08915637 7.33276367 22.02636719 C8.18517819 24.99192241 9.05228378 27.95293097 9.91992188 30.9140625 C10.46184795 32.79661315 11.00289357 34.67941752 11.54296875 36.5625 C11.80434128 37.44800537 12.06571381 38.33351074 12.33500671 39.24584961 C12.68581047 40.48733765 12.68581047 40.48733765 13.04370117 41.75390625 C13.25306808 42.47908447 13.462435 43.2042627 13.67814636 43.95141602 C14.04078029 46.25956472 13.71201075 47.79361095 13 50 C12.15488176 48.27656245 11.32436646 46.54595947 10.5 44.8125 C10.0359375 43.84957031 9.571875 42.88664062 9.09375 41.89453125 C8.00407079 39.01077307 7.77722476 37.04645139 8 34 C7.34 34 6.68 34 6 34 C5.67 35.32 5.34 36.64 5 38 C4.34 37.67 3.68 37.34 3 37 C3.309375 36.401875 3.61875 35.80375 3.9375 35.1875 C6.13726624 30.6585695 5.99847634 27.90917536 5 23 C3.54276115 19.66556056 3.54276115 19.66556056 2 17 C1.01 17 0.02 17 -1 17 C-1.33 15.68 -1.66 14.36 -2 13 C-1.34 12.67 -0.68 12.34 0 12 C-0.2784375 10.4221875 -0.2784375 10.4221875 -0.5625 8.8125 C-0.95079331 5.42880118 -0.88247485 3.23574112 0 0 Z " fill="#17600D" transform="translate(867,61)"/>
<path d="M0 0 C5.94 0 11.88 0 18 0 C17.67 26.73 17.34 53.46 17 81 C16.67 81 16.34 81 16 81 C16 54.93 16 28.86 16 2 C10.39 2 4.78 2 -1 2 C-0.67 1.34 -0.34 0.68 0 0 Z " fill="#000007" transform="translate(616,40)"/>
<path d="M0 0 C-2.7324081 2.7324081 -4.36421859 2.26267761 -8.1875 2.375 C-20.84325379 3.13926763 -31.956524 6.81697601 -43 13 C-43.75796875 13.42023437 -44.5159375 13.84046875 -45.296875 14.2734375 C-46.8752489 15.16364038 -48.43991055 16.07812896 -50 17 C-46.99194561 9.43921463 -36.66047034 6.07408858 -29.625 3.03515625 C-19.94928777 -0.78041479 -10.25141756 -0.19905665 0 0 Z " fill="#050710" transform="translate(363,36)"/>
<path d="M0 0 C5.28357379 3.38930216 10.19081892 7.18679333 15.125 11.0625 C16.71071904 12.30366458 18.29664923 13.54455944 19.8828125 14.78515625 C20.57777832 15.33051025 21.27274414 15.87586426 21.98876953 16.43774414 C23.97603595 17.98138553 25.98254812 19.49609675 28 21 C26.95125002 23.62187494 26.35068687 24.79371361 23.875 26.25 C23.25625 26.4975 22.6375 26.745 22 27 C22.66 25.02 23.32 23.04 24 21 C23.01 21 22.02 21 21 21 C20.61279785 20.10438354 20.61279785 20.10438354 20.21777344 19.19067383 C18.11882694 15.41484245 14.64994226 13.25573595 11.25 10.6875 C10.54617188 10.12482422 9.84234375 9.56214844 9.1171875 8.98242188 C4.88849269 5.73290859 4.88849269 5.73290859 -0.2734375 4.984375 C-2.84236114 5.94128065 -4.72257011 6.88360469 -6.875 8.5625 C-7.90625 9.366875 -8.9375 10.17125 -10 11 C-10.66 10.67 -11.32 10.34 -12 10 C-9.62226815 7.49914935 -7.04733058 5.41316697 -4.3125 3.3125 C-3.50425781 2.68988281 -2.69601562 2.06726563 -1.86328125 1.42578125 C-1.24839844 0.95527344 -0.63351562 0.48476562 0 0 Z " fill="#060910" transform="translate(395,131)"/>
<path d="M0 0 C5.95277286 -0.42464657 9.66902553 0.75579024 14.8125 3.4375 C15.86135376 3.97503906 15.86135376 3.97503906 16.93139648 4.5234375 C23.14021939 7.83672049 28.14246167 11.90225373 33 17 C33.72445312 17.72832031 34.44890625 18.45664062 35.1953125 19.20703125 C38.86326266 23.08355112 38.86326266 23.08355112 40 25 C39.67578125 27.23046875 39.67578125 27.23046875 39 29 C38.31164062 28.09507813 38.31164062 28.09507813 37.609375 27.171875 C36.99578125 26.37265625 36.3821875 25.5734375 35.75 24.75 C35.14671875 23.96109375 34.5434375 23.1721875 33.921875 22.359375 C31.20328325 19.02191684 28.58780962 16.39187308 25 14 C24.41089844 13.36320312 23.82179688 12.72640625 23.21484375 12.0703125 C20.5361634 9.5664314 17.91113252 8.35381806 14.5625 6.875 C13.45003906 6.37742187 12.33757812 5.87984375 11.19140625 5.3671875 C9.23327532 4.52833092 7.26375944 3.71479921 5.27734375 2.9453125 C3 2 3 2 0 0 Z " fill="#06080F" transform="translate(379,39)"/>
<path d="M0 0 C0.5345256 1.24420647 1.05208611 2.49570936 1.5625 3.75 C1.85253906 4.44609375 2.14257812 5.1421875 2.44140625 5.859375 C3.07831803 8.30012784 2.80248831 9.6403655 2 12 C-1 5.375 -1 5.375 -1 2 C-6.66014162 2.11806197 -12.32010083 2.24229672 -17.97998047 2.37231445 C-19.90637504 2.41569001 -21.83280871 2.45736314 -23.75927734 2.49731445 C-26.52453408 2.55495362 -29.2895935 2.61866616 -32.0546875 2.68359375 C-32.9193161 2.70030624 -33.7839447 2.71701874 -34.67477417 2.73423767 C-38.97395852 2.72159896 -38.97395852 2.72159896 -43 4 C-43 2.68 -43 1.36 -43 0 C-28.56887489 -0.86610318 -14.42362601 -1.0268737 0 0 Z " fill="#115909" transform="translate(776,40)"/>
<path d="M0 0 C0.66 0.33 1.32 0.66 2 1 C1.67 2.98 1.34 4.96 1 7 C-14.51 7 -30.02 7 -46 7 C-44 5 -44 5 -42.12704468 4.75949097 C-40.98787094 4.7661528 -40.98787094 4.7661528 -39.82568359 4.77294922 C-38.53457169 4.77317581 -38.53457169 4.77317581 -37.21737671 4.77340698 C-36.28712677 4.78372955 -35.35687683 4.79405212 -34.3984375 4.8046875 C-33.44683746 4.8075174 -32.49523743 4.81034729 -31.51480103 4.81326294 C-28.46807408 4.82448011 -25.42163846 4.84958737 -22.375 4.875 C-20.31250424 4.88502782 -18.25000388 4.89415401 -16.1875 4.90234375 C-11.12488733 4.92442446 -6.0624931 4.9589647 -1 5 C-0.67 3.35 -0.34 1.7 0 0 Z " fill="#010106" transform="translate(164,170)"/>
<path d="M0 0 C1.24451915 3.59527755 0.70603283 6.31293967 0 10 C0 10.99 0 11.98 0 13 C-0.99 12.67 -1.98 12.34 -3 12 C-3 12.66 -3 13.32 -3 14 C-2.34 14.33 -1.68 14.66 -1 15 C-1.99 17.475 -1.99 17.475 -3 20 C-3.66 20 -4.32 20 -5 20 C-5.33 22.31 -5.66 24.62 -6 27 C-5.34 27.33 -4.68 27.66 -4 28 C-4.3125 30.375 -4.3125 30.375 -5 33 C-5.99 33.66 -6.98 34.32 -8 35 C-8.66 35.99 -9.32 36.98 -10 38 C-11.33584636 33.99246091 -10.13051679 31.19746263 -8.9453125 27.3046875 C-8.72430878 26.55663849 -8.50330505 25.80858948 -8.27560425 25.03787231 C-7.80709836 23.45812085 -7.3344259 21.87959996 -6.85791016 20.30224609 C-6.12649045 17.87993607 -5.40788053 15.45411149 -4.69140625 13.02734375 C-4.2351194 11.49456987 -3.77811271 9.96201006 -3.3203125 8.4296875 C-3.10359894 7.70055145 -2.88688538 6.97141541 -2.66360474 6.22018433 C-1.11680285 1.11680285 -1.11680285 1.11680285 0 0 Z " fill="#1C630D" transform="translate(812,82)"/>
<path d="M0 0 C0 0.33 0 0.66 0 1 C-0.66644531 0.98839844 -1.33289062 0.97679687 -2.01953125 0.96484375 C-8.74230945 0.89902634 -15.317439 1.27616361 -22 2 C-22 2.33 -22 2.66 -22 3 C-26.54258675 3.12618297 -26.54258675 3.12618297 -28.8125 2.5 C-31.50783998 1.88392229 -33.9879436 1.90461838 -36.75 1.9375 C-37.73484375 1.94652344 -38.7196875 1.95554688 -39.734375 1.96484375 C-40.85585938 1.98224609 -40.85585938 1.98224609 -42 2 C-30.74553471 -5.50297686 -12.47736657 -2.32137052 0 0 Z " fill="#1A5C0F" transform="translate(1046,37)"/>
<path d="M0 0 C0.33 0 0.66 0 1 0 C1.33 27.06 1.66 54.12 2 82 C1.01 81.34 0.02 80.68 -1 80 C-1.25667989 77.39374357 -1.31953225 75.03235591 -1.2487793 72.42919922 C-1.23946381 71.64862152 -1.23014832 70.86804382 -1.22055054 70.06381226 C-1.18610352 67.47700187 -1.13022402 64.89111367 -1.07421875 62.3046875 C-1.04619423 60.51394631 -1.01950291 58.72318379 -0.99409485 56.93240356 C-0.92355063 52.21387502 -0.83484664 47.49585408 -0.74243164 42.77770996 C-0.65135964 37.96526292 -0.57736249 33.1525572 -0.50195312 28.33984375 C-0.35140106 18.89289616 -0.18167431 9.44639672 0 0 Z " fill="#0D0D11" transform="translate(633,44)"/>
<path d="M0 0 C0 0.99 0 1.98 0 3 C-9.25801762 11.75564457 -24.55168097 15.82441489 -37 17 C-37.66 16.34 -38.32 15.68 -39 15 C-37.99582031 14.76925781 -36.99164063 14.53851563 -35.95703125 14.30078125 C-23.01701006 11.2495198 -11.20755968 7.36207645 0 0 Z " fill="#040710" transform="translate(409,164)"/>
<path d="M0 0 C0.99 0.495 0.99 0.495 2 1 C2 2.32 2 3.64 2 5 C4.31 5.33 6.62 5.66 9 6 C10.05147939 9.41730801 10.36370888 12.43565297 10 16 C8.71897874 17.70720241 7.38970975 19.38004248 6 21 C4.99263372 18.06497405 3.99539496 15.12660539 3 12.1875 C2.71382812 11.35412109 2.42765625 10.52074219 2.1328125 9.66210938 C1.72675781 8.45844727 1.72675781 8.45844727 1.3125 7.23046875 C1.06113281 6.49207764 0.80976562 5.75368652 0.55078125 4.99291992 C0 3 0 3 0 0 Z " fill="#1A620B" transform="translate(766,139)"/>
<path d="M0 0 C0.95583984 -0.01224609 1.91167969 -0.02449219 2.89648438 -0.03710938 C8.78425362 -0.0491498 14.73424334 0.09412351 20.3125 2.1875 C20.8075 3.1775 20.8075 3.1775 21.3125 4.1875 C20.16249512 4.13420532 20.16249512 4.13420532 18.98925781 4.07983398 C15.51391557 3.92217494 12.03824561 3.77348913 8.5625 3.625 C7.3559375 3.56892578 6.149375 3.51285156 4.90625 3.45507812 C3.74609375 3.40673828 2.5859375 3.35839844 1.390625 3.30859375 C0.32231445 3.2614624 -0.74599609 3.21433105 -1.84667969 3.16577148 C-4.36913387 3.18506492 -6.27357395 3.57186105 -8.6875 4.1875 C-9.3475 3.8575 -10.0075 3.5275 -10.6875 3.1875 C-12.35369446 3.1478287 -14.02141013 3.14365553 -15.6875 3.1875 C-14.6875 1.1875 -14.6875 1.1875 -12.93041992 0.57299805 C-8.65062657 -0.16258416 -4.33142531 0.00286281 0 0 Z " fill="#03060F" transform="translate(85.6875,7.8125)"/>
<path d="M0 0 C0.99 0.33 1.98 0.66 3 1 C3 1.99 3 2.98 3 4 C3.52980469 3.83757812 4.05960938 3.67515625 4.60546875 3.5078125 C14.54443975 1.40003725 25.91619082 3.20911301 36 4 C36 4.66 36 5.32 36 6 C32.04168267 6.02940464 28.08339403 6.04693328 24.125 6.0625 C23.01640625 6.07087891 21.9078125 6.07925781 20.765625 6.08789062 C14.10948511 6.10746751 7.6060883 5.82879778 1 5 C0.67 3.35 0.34 1.7 0 0 Z " fill="#065600" transform="translate(864,172)"/>
<path d="M0 0 C-2.93828597 2.50298434 -5.17902761 3.46930939 -9 4 C-9.33 4.99 -9.66 5.98 -10 7 C-10.69996094 7.07476563 -11.39992187 7.14953125 -12.12109375 7.2265625 C-15.8200014 8.22029888 -18.05153416 10.02256399 -21.0625 12.375 C-22.59583984 13.56222656 -22.59583984 13.56222656 -24.16015625 14.7734375 C-25.56587891 15.87558594 -25.56587891 15.87558594 -27 17 C-28.33043455 18.00385342 -29.66244463 19.00565428 -31 20 C-28.5609002 12.24666042 -21.39213379 7.88665784 -14.55859375 4.0859375 C-5.25954117 -0.37845407 -5.25954117 -0.37845407 0 0 Z " fill="#040811" transform="translate(175,12)"/>
<path d="M0 0 C1.01771484 -0.00128906 2.03542969 -0.00257813 3.08398438 -0.00390625 C4.15068359 -0.00003906 5.21738281 0.00382813 6.31640625 0.0078125 C7.37923828 0.00394531 8.44207031 0.00007812 9.53710938 -0.00390625 C11.06561523 -0.00197266 11.06561523 -0.00197266 12.625 0 C13.56013428 0.00112793 14.49526855 0.00225586 15.45874023 0.00341797 C17.87890625 0.1328125 17.87890625 0.1328125 20.87890625 1.1328125 C21.20890625 2.1228125 21.53890625 3.1128125 21.87890625 4.1328125 C21.21246094 4.060625 20.54601562 3.9884375 19.859375 3.9140625 C8.52261427 2.67181845 8.52261427 2.67181845 -2.765625 3.66796875 C-5.50010747 4.20760957 -7.44365122 3.82129772 -10.12109375 3.1328125 C-6.26053018 0.55910345 -4.57482823 0.00552468 0 0 Z " fill="#020510" transform="translate(191.12109375,7.8671875)"/>
<path d="M0 0 C1.32 0.66 2.64 1.32 4 2 C2.71937515 3.7074998 1.38232443 5.37373596 0 7 C-0.66 7 -1.32 7 -2 7 C-2.020625 7.86625 -2.04125 8.7325 -2.0625 9.625 C-3.38217057 14.37581404 -6.00041929 16.29305945 -10 19 C-12.62602791 20.48228753 -15.2515009 21.74629865 -18 23 C-18.66 22.34 -19.32 21.68 -20 21 C-18.824375 20.484375 -17.64875 19.96875 -16.4375 19.4375 C-7.86999957 15.09320208 -3.76850875 8.6311007 0 0 Z " fill="#1F6711" transform="translate(1059,120)"/>
<path d="M0 0 C8.61274727 0.81594448 15.91708937 8.65559821 21.953125 14.359375 C23 16 23 16 22.671875 18.203125 C22.33929688 19.09257813 22.33929688 19.09257813 22 20 C21.47792969 19.35933594 20.95585937 18.71867187 20.41796875 18.05859375 C14.91997145 11.59772476 9.3203692 7.22421305 2 3 C1.01 2.34 0.02 1.68 -1 1 C-0.67 0.67 -0.34 0.34 0 0 Z " fill="#040710" transform="translate(118,15)"/>
<path d="M0 0 C1.12377697 3.30435084 0.89554742 5.0506862 -0.4375 8.25 C-0.72496094 8.95640625 -1.01242187 9.6628125 -1.30859375 10.390625 C-1.53675781 10.92171875 -1.76492188 11.4528125 -2 12 C-2.66 12 -3.32 12 -4 12 C-4.103125 12.639375 -4.20625 13.27875 -4.3125 13.9375 C-5.23903073 18.06477326 -6.61660629 22.00642949 -8 26 C-8.66 26 -9.32 26 -10 26 C-9.37851697 23.29081668 -8.75293439 20.58268873 -8.125 17.875 C-7.95097656 17.11445312 -7.77695312 16.35390625 -7.59765625 15.5703125 C-6.60201572 11.29274576 -5.47028611 7.14594191 -4 3 C-3.01 3.33 -2.02 3.66 -1 4 C-0.67 2.68 -0.34 1.36 0 0 Z " fill="#216016" transform="translate(903,71)"/>
<path d="M0 0 C0.99 0 1.98 0 3 0 C5.86720922 5.61495138 6.32790053 10.60649069 6.375 16.8125 C6.38853516 17.56587646 6.40207031 18.31925293 6.41601562 19.09545898 C6.37224981 24.50843935 6.37224981 24.50843935 4.4765625 27.01171875 C3.74566406 27.50091797 3.74566406 27.50091797 3 28 C3.03480469 26.81664063 3.06960938 25.63328125 3.10546875 24.4140625 C3.27978927 15.82696117 3.40501729 8.0666481 0 0 Z " fill="#1D5F15" transform="translate(1057,91)"/>
<path d="M0 0 C-1.40424009 2.80848017 -3.10864198 2.92414585 -6 4 C-6.70125 4.391875 -7.4025 4.78375 -8.125 5.1875 C-10 6 -10 6 -13 5 C-13 5.66 -13 6.32 -13 7 C-14.11375 7.309375 -15.2275 7.61875 -16.375 7.9375 C-19.7945155 8.82326483 -19.7945155 8.82326483 -22 10 C-21.86328125 8.16796875 -21.86328125 8.16796875 -21 6 C-18.41796875 4.55078125 -18.41796875 4.55078125 -15.1875 3.3125 C-14.12917969 2.89613281 -13.07085937 2.47976562 -11.98046875 2.05078125 C-7.77284387 0.56735911 -4.47024203 -0.12417339 0 0 Z " fill="#070A13" transform="translate(69,10)"/>
<path d="M0 0 C1.7015625 0.2475 1.7015625 0.2475 3.4375 0.5 C10.75213274 1.40304108 17.72336903 1.05841905 25 0 C22.70271521 3.44592719 21.92317987 3.96479016 18 5 C15.18772167 4.85139506 12.58016515 4.60578062 9.8125 4.1875 C9.08869141 4.09146484 8.36488281 3.99542969 7.61914062 3.89648438 C2.32553089 3.16276544 2.32553089 3.16276544 0 2 C0 1.34 0 0.68 0 0 Z " fill="#1B600E" transform="translate(1014,142)"/>
<path d="M0 0 C1.24910156 -0.01836914 1.24910156 -0.01836914 2.5234375 -0.03710938 C3.71839844 -0.04000977 3.71839844 -0.04000977 4.9375 -0.04296875 C6.03384766 -0.04913208 6.03384766 -0.04913208 7.15234375 -0.05541992 C9 0.1875 9 0.1875 11 2.1875 C10.01 2.24808594 9.02 2.30867188 8 2.37109375 C1.30533362 2.79210466 -5.35518903 3.23824129 -12 4.1875 C-11.67 3.1975 -11.34 2.2075 -11 1.1875 C-7.58173253 -0.52163373 -3.76645237 0.00291521 0 0 Z " fill="#01030A" transform="translate(358,68.8125)"/>
<path d="M0 0 C0.33 0 0.66 0 1 0 C0.60921501 6.45469001 0.09470687 13.19411831 -3 19 C-3.99 19.33 -4.98 19.66 -6 20 C-6.33 19.01 -6.66 18.02 -7 17 C-6.566875 16.319375 -6.13375 15.63875 -5.6875 14.9375 C-3.65208049 11.39436234 -3.15731787 8.20886685 -2.52734375 4.20703125 C-2 2 -2 2 0 0 Z " fill="#060912" transform="translate(721,128)"/>
<path d="M0 0 C0.99 0.33 1.98 0.66 3 1 C2.505 2.010625 2.01 3.02125 1.5 4.0625 C-0.11592314 7.77988188 -0.24859797 10.93956657 0 15 C-0.66 15 -1.32 15 -2 15 C-2 15.66 -2 16.32 -2 17 C-2.66 17 -3.32 17 -4 17 C-4 18.65 -4 20.3 -4 22 C-4.66 22 -5.32 22 -6 22 C-5.37798054 19.45757096 -4.75248241 16.91608125 -4.125 14.375 C-3.95097656 13.66214844 -3.77695312 12.94929688 -3.59765625 12.21484375 C-2.57145662 8.07203784 -1.41209271 4.03273322 0 0 Z " fill="#1F6313" transform="translate(823,42)"/>
<path d="M0 0 C7.34294108 1.86234013 13.15344057 5.18586872 19 10 C19.33 10.66 19.66 11.32 20 12 C19.236875 11.690625 18.47375 11.38125 17.6875 11.0625 C15.81210323 10.32106407 13.91315348 9.63771783 12 9 C11.34 9.66 10.68 10.32 10 11 C9.67 9.02 9.34 7.04 9 5 C7.35 4.67 5.7 4.34 4 4 C4 3.34 4 2.68 4 2 C2.68 1.67 1.36 1.34 0 1 C0 0.67 0 0.34 0 0 Z " fill="#1E6010" transform="translate(1056,41)"/>
<path d="M0 0 C0.99 0 1.98 0 3 0 C2.23088584 4.74287064 0.64041079 7.81464056 -3 11 C-3.66 11 -4.32 11 -5 11 C-5.33 11.99 -5.66 12.98 -6 14 C-5.49202991 9.6822542 -4.80317221 5.96697886 -3 2 C-2.01 2 -1.02 2 0 2 C0 1.34 0 0.68 0 0 Z " fill="#1C730A" transform="translate(820,62)"/>
<path d="M0 0 C12.21 0 24.42 0 37 0 C37.66 1.32 38.32 2.64 39 4 C38.67 4.99 38.34 5.98 38 7 C37.34 6.34 36.68 5.68 36 5 C36 3.68 36 2.36 36 1 C24.12 1 12.24 1 0 1 C0 0.67 0 0.34 0 0 Z " fill="#175C10" transform="translate(824,40)"/>
<path d="M0 0 C0.49628906 0.38671875 0.99257813 0.7734375 1.50390625 1.171875 C5.84883147 4.50270951 10.18629161 7.39257462 15 10 C10.81120646 11.39626451 8.04803407 10.47388576 3.99609375 9.0234375 C2 8 2 8 0.4375 5.5 C0 3 0 3 0 0 Z " fill="#20630F" transform="translate(999,131)"/>
<path d="M0 0 C0.66 0.33 1.32 0.66 2 1 C-0.22446502 5.57251143 -2.40246508 6.97708463 -7 9 C-7.9075 9.5775 -8.815 10.155 -9.75 10.75 C-10.86375 11.36875 -10.86375 11.36875 -12 12 C-12.66 11.67 -13.32 11.34 -14 11 C-9.52692892 6.95834187 -5.11723176 3.19826985 0 0 Z " fill="#206213" transform="translate(987,45)"/>
<path d="M0 0 C2.41696872 -0.05411124 4.83271787 -0.09372278 7.25 -0.125 C7.93191406 -0.14175781 8.61382812 -0.15851562 9.31640625 -0.17578125 C13.0608235 -0.21213482 15.82352727 -0.07944349 19 2 C12.51656189 4.63096039 6.97669157 5.39325819 0 5 C-0.33 4.34 -0.66 3.68 -1 3 C2.3 2.67 5.6 2.34 9 2 C6.03 1.67 3.06 1.34 0 1 C0 0.67 0 0.34 0 0 Z " fill="#12131D" transform="translate(352,35)"/>
<path d="M0 0 C-0.80824219 0.31453125 -1.61648438 0.6290625 -2.44921875 0.953125 C-3.51785156 1.38109375 -4.58648438 1.8090625 -5.6875 2.25 C-6.74324219 2.66765625 -7.79898438 3.0853125 -8.88671875 3.515625 C-12.01922259 5.0091651 -14.38819471 6.73223585 -17 9 C-17.33 8.34 -17.66 7.68 -18 7 C-17.06553465 4.96855359 -16.06775224 2.96466413 -15 1 C-12.03 1.495 -12.03 1.495 -9 2 C-9 1.34 -9 0.68 -9 0 C-5.5657338 -0.85856655 -3.38317487 -0.97591583 0 0 Z " fill="#1F6512" transform="translate(1019,74)"/>
<path d="M0 0 C0.66 0.99 1.32 1.98 2 3 C1.67 3.66 1.34 4.32 1 5 C1.66 5.33 2.32 5.66 3 6 C2.6875 8.375 2.6875 8.375 2 11 C1.01 11.66 0.02 12.32 -1 13 C-1.66 13.99 -2.32 14.98 -3 16 C-4.31225809 12.06322574 -3.3393954 10.2205738 -2.0625 6.3125 C-1.68222656 5.13300781 -1.30195312 3.95351562 -0.91015625 2.73828125 C-0.60980469 1.83464844 -0.30945313 0.93101563 0 0 Z " fill="#20750F" transform="translate(805,104)"/>
<path d="M0 0 C0.99 0.33 1.98 0.66 3 1 C2.62488281 1.47308594 2.24976563 1.94617188 1.86328125 2.43359375 C-1.96314405 7.37806775 -5.10343624 12.46320555 -8 18 C-8.671875 16.3125 -8.671875 16.3125 -9 14 C-7.890625 11.5625 -7.890625 11.5625 -6.25 9 C-5.45335937 7.7315625 -5.45335937 7.7315625 -4.640625 6.4375 C-3.15786003 4.2345349 -1.61780996 2.10510211 0 0 Z " fill="#060A13" transform="translate(30,30)"/>
<path d="M0 0 C0.33 1.32 0.66 2.64 1 4 C1.66 4 2.32 4 3 4 C3.33 5.65 3.66 7.3 4 9 C6.64 9.66 9.28 10.32 12 11 C12 11.33 12 11.66 12 12 C8.7 12 5.4 12 2 12 C1.47026689 10.37787941 0.95146893 8.75218416 0.4375 7.125 C0.14746094 6.22007812 -0.14257812 5.31515625 -0.44140625 4.3828125 C-1 2 -1 2 0 0 Z " fill="#1B5C12" transform="translate(776,165)"/>
<path d="M0 0 C2.37599719 3.56399578 3.15731805 7.08381174 4.125 11.1875 C4.39763672 12.31188477 4.39763672 12.31188477 4.67578125 13.45898438 C5.12251686 15.30470781 5.5619694 17.15219132 6 19 C4.68 18.67 3.36 18.34 2 18 C0.77100654 11.93184478 -0.27560214 6.20104812 0 0 Z " fill="#1B6210" transform="translate(794,106)"/>
<path d="M0 0 C0.80244141 0.54720703 0.80244141 0.54720703 1.62109375 1.10546875 C-0.98148949 1.94404563 -3.58576272 2.77650219 -6.19140625 3.60546875 C-7.29838867 3.96318359 -7.29838867 3.96318359 -8.42773438 4.328125 C-11.51145821 5.30487011 -14.12386434 6.10546875 -17.37890625 6.10546875 C-14.83696231 3.05337689 -12.1598856 2.05697594 -8.44140625 0.79296875 C-7.40113281 0.42558594 -6.36085938 0.05820312 -5.2890625 -0.3203125 C-2.37890625 -0.89453125 -2.37890625 -0.89453125 0 0 Z " fill="#040813" transform="translate(515.37890625,36.89453125)"/>
<path d="M0 0 C0.99 0.33 1.98 0.66 3 1 C3 1.99 3 2.98 3 4 C3.54140625 3.83628906 4.0828125 3.67257813 4.640625 3.50390625 C7.40222593 2.91409413 9.92818139 2.90390692 12.75 2.9375 C13.73484375 2.94652344 14.7196875 2.95554688 15.734375 2.96484375 C16.85585938 2.98224609 16.85585938 2.98224609 18 3 C18.33 3.66 18.66 4.32 19 5 C12.76817361 6.03863773 7.25307239 5.83288874 1 5 C0.67 3.35 0.34 1.7 0 0 Z " fill="#145C0A" transform="translate(864,172)"/>
<path d="M0 0 C2.34665536 3.51998305 4.44126696 7.16118551 6.5625 10.8203125 C7.81594961 13.11649811 7.81594961 13.11649811 10 14 C10 14.66 10 15.32 10 16 C9.01 16 8.02 16 7 16 C5.2109375 13.98828125 5.2109375 13.98828125 3.375 11.3125 C2.76398438 10.44238281 2.15296875 9.57226562 1.5234375 8.67578125 C0.01169211 6.02053614 -0.69256648 4.02662997 -1 1 C-0.67 0.67 -0.34 0.34 0 0 Z " fill="#050710" transform="translate(294,140)"/>
<path d="M0 0 C1.3274855 3.98245651 -0.00092171 6.44789543 -1.4375 10.1875 C-1.80198242 11.16879883 -1.80198242 11.16879883 -2.17382812 12.16992188 C-2.7743293 13.78303286 -3.38609203 15.3919435 -4 17 C-4.33 17 -4.66 17 -5 17 C-5 13.7 -5 10.4 -5 7 C-4.34 6.67 -3.68 6.34 -3 6 C-2.29788106 4.34795544 -1.63028587 2.68076231 -1 1 C-0.67 0.67 -0.34 0.34 0 0 Z " fill="#195F0E" transform="translate(929,106)"/>
<path d="M0 0 C0.66 0 1.32 0 2 0 C1.86722656 0.57105469 1.73445312 1.14210938 1.59765625 1.73046875 C0.05933154 8.79328805 -0.57064726 15.79139345 -1 23 C-1.33 23 -1.66 23 -2 23 C-2.33 16.73 -2.66 10.46 -3 4 C-2.34 3.67 -1.68 3.34 -1 3 C-0.67 2.01 -0.34 1.02 0 0 Z " fill="#215B14" transform="translate(993,92)"/>
<path d="M0 0 C3 0 3 0 5.4375 2.25 C6.283125 3.1575 7.12875 4.065 8 5 C8.763125 5.721875 9.52625 6.44375 10.3125 7.1875 C12 9 12 9 12 11 C8.81293058 9.56438314 6.37830895 7.79733671 3.75 5.5 C3.04359375 4.8915625 2.3371875 4.283125 1.609375 3.65625 C0 2 0 2 0 0 Z " fill="#19570D" transform="translate(970,156)"/>
<path d="M0 0 C0.33 0.99 0.66 1.98 1 3 C-4.96345767 4.0006709 -9.28728907 4.0662997 -15 2 C-15 1.67 -15 1.34 -15 1 C-10.05 0.67 -5.1 0.34 0 0 Z " fill="#070811" transform="translate(664,141)"/>
<path d="M0 0 C0.33 0.99 0.66 1.98 1 3 C-0.3125 5.1875 -0.3125 5.1875 -2 7 C-2.66 7 -3.32 7 -4 7 C-4.2475 7.598125 -4.495 8.19625 -4.75 8.8125 C-6.16370012 11.28647521 -7.65055383 12.43370255 -10 14 C-8.62815653 9.93501119 -6.77931541 7.32603439 -3.875 4.1875 C-3.15054688 3.39730469 -2.42609375 2.60710938 -1.6796875 1.79296875 C-1.12539063 1.20128906 -0.57109375 0.60960937 0 0 Z " fill="#1E6715" transform="translate(972,57)"/>
<path d="M0 0 C0.66 0 1.32 0 2 0 C1.71512349 2.04262517 1.42177949 4.08407027 1.125 6.125 C0.96257813 7.26195312 0.80015625 8.39890625 0.6328125 9.5703125 C0.02568583 12.86078915 -0.86345633 15.85779103 -2 19 C-3.1171875 17.484375 -3.1171875 17.484375 -4 15 C-3.49969753 12.29721652 -2.91958415 9.8607765 -2.125 7.25 C-1.92519531 6.55261719 -1.72539063 5.85523438 -1.51953125 5.13671875 C-1.0258892 3.42072495 -0.51464497 1.7098122 0 0 Z " fill="#1E5D13" transform="translate(907,45)"/>
<path d="M0 0 C0.66 0 1.32 0 2 0 C1.54548816 1.73017508 1.08621143 3.45909877 0.625 5.1875 C0.36976563 6.15042969 0.11453125 7.11335937 -0.1484375 8.10546875 C-0.94766296 10.82210207 -1.9031362 13.39137175 -3 16 C-3.33 16 -3.66 16 -4 16 C-4.125 8.25 -4.125 8.25 -3 6 C-2.34 6 -1.68 6 -1 6 C-0.67 4.02 -0.34 2.04 0 0 Z " fill="#18620E" transform="translate(912,154)"/>
<path d="M0 0 C1.43791516 0.14168137 2.8753237 0.28851043 4.3125 0.4375 C5.11300781 0.51871094 5.91351563 0.59992187 6.73828125 0.68359375 C9 1 9 1 12 2 C12 2.99 12 3.98 12 5 C11.236875 4.835 10.47375 4.67 9.6875 4.5 C6.96403764 3.90854604 6.96403764 3.90854604 4 4 C1.8125 2 1.8125 2 0 0 Z " fill="#050810" transform="translate(217,11)"/>
<path d="M0 0 C0.99 0 1.98 0 3 0 C4.33333333 2 5.66666667 4 7 6 C8.63978318 7.04349839 10.30094366 8.05607981 12 9 C12 9.66 12 10.32 12 11 C9.0280615 9.87548273 6.66559313 8.77706209 4 7 C4 6.34 4 5.68 4 5 C3.34 5 2.68 5 2 5 C1.34 3.35 0.68 1.7 0 0 Z " fill="#06080D" transform="translate(635,131)"/>
<path d="M0 0 C-0.11429397 1.77155654 -0.24183037 3.54226229 -0.375 5.3125 C-0.47941406 6.79169922 -0.47941406 6.79169922 -0.5859375 8.30078125 C-1 11 -1 11 -3 14 C-4.30042194 9.37627754 -3.85486376 5.66289322 -3 1 C-1 0 -1 0 0 0 Z " fill="#16620E" transform="translate(1101,116)"/>
<path d="M0 0 C0.66 0.33 1.32 0.66 2 1 C2.59355614 3.64860427 2.74209269 6.29197322 3 9 C2.01 8.67 1.02 8.34 0 8 C0 8.99 0 9.98 0 11 C-0.66 10.67 -1.32 10.34 -2 10 C-2.625 7.9375 -2.625 7.9375 -3 6 C-2.01 5.67 -1.02 5.34 0 5 C0 3.35 0 1.7 0 0 Z " fill="#166307" transform="translate(787,84)"/>
<path d="M0 0 C0.66 0.66 1.32 1.32 2 2 C2.66 1.67 3.32 1.34 4 1 C3.71890887 2.64767247 3.42481474 4.29313145 3.125 5.9375 C2.96257813 6.85402344 2.80015625 7.77054687 2.6328125 8.71484375 C2.42398438 9.46894531 2.21515625 10.22304687 2 11 C1.01 11.495 1.01 11.495 0 12 C0 11.01 0 10.02 0 9 C-0.66 9 -1.32 9 -2 9 C-1.34 6.03 -0.68 3.06 0 0 Z " fill="#206910" transform="translate(888,113)"/>
<path d="M0 0 C2.475 0.99 2.475 0.99 5 2 C4.67 2.99 4.34 3.98 4 5 C3.93334624 6.39439664 3.91461801 7.79169875 3.9375 9.1875 C3.958125 10.445625 3.97875 11.70375 4 13 C1.99706653 9.99559979 1.50728374 8.29006055 0.875 4.8125 C0.70742188 3.91144531 0.53984375 3.01039063 0.3671875 2.08203125 C0.24601563 1.39496094 0.12484375 0.70789063 0 0 Z " fill="#195D0D" transform="translate(856,145)"/>
<path d="M0 0 C1.73169596 3.1622274 2.7128976 6.26742722 3.625 9.75 C3.88539063 10.73484375 4.14578125 11.7196875 4.4140625 12.734375 C4.60742188 13.48203125 4.80078125 14.2296875 5 15 C4.34 15.66 3.68 16.32 3 17 C0.4084738 11.06108578 -0.40368295 6.45892714 0 0 Z " fill="#1B5911" transform="translate(779,52)"/>
<path d="M0 0 C1.95803507 -0.05389087 3.91648909 -0.09274217 5.875 -0.125 C7.51082031 -0.15980469 7.51082031 -0.15980469 9.1796875 -0.1953125 C12 0 12 0 14 2 C3.44191344 3.33257403 3.44191344 3.33257403 -1 2 C-0.67 1.34 -0.34 0.68 0 0 Z " fill="#000209" transform="translate(504,71)"/>
<path d="M0 0 C0.33 0.66 0.66 1.32 1 2 C1.66 2 2.32 2 3 2 C2.34 4.97 1.68 7.94 1 11 C0.01 10.34 -0.98 9.68 -2 9 C-1.34 6.03 -0.68 3.06 0 0 Z " fill="#1F6E0F" transform="translate(956,81)"/>
<path d="M0 0 C2.625 -0.1875 2.625 -0.1875 5 0 C3.55746343 3.36591866 1.66735273 5.51047079 -1 8 C-1.625 5.6875 -1.625 5.6875 -2 3 C-1.34 2.01 -0.68 1.02 0 0 Z " fill="#155F09" transform="translate(996,83)"/>
<path d="M0 0 C0.66 0 1.32 0 2 0 C3.905247 5.10334017 5.42589023 9.46342706 5 15 C3.25050228 12.37575342 2.34610019 10.44272784 1.375 7.5 C0.98441406 6.33984375 0.98441406 6.33984375 0.5859375 5.15625 C0 3 0 3 0 0 Z " fill="#216616" transform="translate(741,65)"/>
<path d="M0 0 C0.33 0.66 0.66 1.32 1 2 C1.66 2 2.32 2 3 2 C3 5.96 3 9.92 3 14 C1.13591522 11.20387283 0.51163882 9.62830652 -0.1875 6.4375 C-0.36667969 5.65246094 -0.54585937 4.86742187 -0.73046875 4.05859375 C-1 2 -1 2 0 0 Z " fill="#236912" transform="translate(861,157)"/>
<path d="M0 0 C2.10827055 3.16240582 2.33817465 4.50657469 2.625 8.1875 C2.69976563 9.08855469 2.77453125 9.98960938 2.8515625 10.91796875 C2.90054687 11.60503906 2.94953125 12.29210937 3 13 C2.01 13.66 1.02 14.32 0 15 C0 10.05 0 5.1 0 0 Z " fill="#086901" transform="translate(1099,102)"/>
<path d="M0 0 C0.66 0 1.32 0 2 0 C0.61735163 2.86867231 -0.92148553 5.56024032 -2.625 8.25 C-3.07101562 8.95640625 -3.51703125 9.6628125 -3.9765625 10.390625 C-4.48316406 11.18726562 -4.48316406 11.18726562 -5 12 C-5.61328125 10.1953125 -5.61328125 10.1953125 -6 8 C-4.24107963 4.96737867 -2.47809712 2.47809712 0 0 Z " fill="#090C15" transform="translate(334,78)"/>
<path d="M0 0 C1.12377697 3.30435084 0.89554742 5.0506862 -0.4375 8.25 C-0.72496094 8.95640625 -1.01242187 9.6628125 -1.30859375 10.390625 C-1.53675781 10.92171875 -1.76492188 11.4528125 -2 12 C-2.33 10.68 -2.66 9.36 -3 8 C-3.66 8 -4.32 8 -5 8 C-4.67 6.35 -4.34 4.7 -4 3 C-3.01 3.33 -2.02 3.66 -1 4 C-0.67 2.68 -0.34 1.36 0 0 Z " fill="#1F6C11" transform="translate(903,71)"/>
<path d="M0 0 C0.99 0.33 1.98 0.66 3 1 C2.0925 1.721875 1.185 2.44375 0.25 3.1875 C-1.92307318 4.98131041 -3.46083463 6.57604329 -5.25 8.8125 C-5.8275 9.534375 -6.405 10.25625 -7 11 C-7.66 11 -8.32 11 -9 11 C-7.59155282 7.78475695 -5.89655214 5.67816132 -3.375 3.25 C-2.74335938 2.63640625 -2.11171875 2.0228125 -1.4609375 1.390625 C-0.73777344 0.70226563 -0.73777344 0.70226563 0 0 Z " fill="#060813" transform="translate(309,54)"/>
<path d="M0 0 C2.0245738 1.93254772 3.42105792 3.63158688 5 6 C3.35 6.33 1.7 6.66 0 7 C0 6.34 0 5.68 0 5 C-1.32 5.33 -2.64 5.66 -4 6 C-3.6875 4.125 -3.6875 4.125 -3 2 C-2.01 1.34 -1.02 0.68 0 0 Z " fill="#091521" transform="translate(182,49)"/>
<path d="M0 0 C0.33 0.66 0.66 1.32 1 2 C0.07421875 4.12890625 0.07421875 4.12890625 -1.3125 6.5625 C-1.98732422 7.77099609 -1.98732422 7.77099609 -2.67578125 9.00390625 C-4 11 -4 11 -6 12 C-5.57630928 10.3713449 -5.1355377 8.74712622 -4.6875 7.125 C-4.44386719 6.22007812 -4.20023438 5.31515625 -3.94921875 4.3828125 C-3 2 -3 2 0 0 Z " fill="#19600F" transform="translate(1094,138)"/>
<path d="M0 0 C2.61577816 5.23155631 1.6207859 6.59738034 0 12 C-0.99 12 -1.98 12 -3 12 C-2.01 8.04 -1.02 4.08 0 0 Z " fill="#216713" transform="translate(892,99)"/>
<path d="M0 0 C0.33 0.99 0.66 1.98 1 3 C0.67 3.66 0.34 4.32 0 5 C0.66 5.33 1.32 5.66 2 6 C1.34 7.65 0.68 9.3 0 11 C-2.12508244 7.81237635 -2.5020163 5.73487777 -3 2 C-2.01 2 -1.02 2 0 2 C0 1.34 0 0.68 0 0 Z " fill="#206911" transform="translate(749,78)"/>
<path d="M0 0 C1.32 0.66 2.64 1.32 4 2 C3.45276317 5.37462715 2.9451 7.08235 1 10 C0.63883954 8.5225254 0.28624952 7.04295325 -0.0625 5.5625 C-0.25972656 4.73878906 -0.45695313 3.91507813 -0.66015625 3.06640625 C-0.82837891 2.04353516 -0.82837891 2.04353516 -1 1 C-0.67 0.67 -0.34 0.34 0 0 Z " fill="#276E13" transform="translate(736,46)"/>
<path d="M0 0 C0.66 0 1.32 0 2 0 C3.75747614 4.50353262 4.19294408 8.17639811 4 13 C1.99706653 9.99559979 1.50728374 8.29006055 0.875 4.8125 C0.70742188 3.91144531 0.53984375 3.01039062 0.3671875 2.08203125 C0.24601563 1.39496094 0.12484375 0.70789063 0 0 Z " fill="#1E6111" transform="translate(849,121)"/>
<path d="M0 0 C0 0.33 0 0.66 0 1 C-5.94 0.67 -11.88 0.34 -18 0 C-18 -0.33 -18 -0.66 -18 -1 C-5.33029613 -2.51708428 -5.33029613 -2.51708428 0 0 Z " fill="#1E5A15" transform="translate(1040,73)"/>
<path d="M0 0 C0.90492188 0.02320313 1.80984375 0.04640625 2.7421875 0.0703125 C4.10730469 0.09738281 4.10730469 0.09738281 5.5 0.125 C6.19867187 0.14820313 6.89734375 0.17140625 7.6171875 0.1953125 C7.9471875 0.8553125 8.2771875 1.5153125 8.6171875 2.1953125 C5.41702894 3.26203202 3.73174456 3.14376722 0.4296875 2.7578125 C-0.47136719 2.65597656 -1.37242187 2.55414063 -2.30078125 2.44921875 C-2.98785156 2.36542969 -3.67492187 2.28164063 -4.3828125 2.1953125 C-2.3828125 0.1953125 -2.3828125 0.1953125 0 0 Z " fill="#010108" transform="translate(522.3828125,35.8046875)"/>
<path d="M0 0 C0.99 0.33 1.98 0.66 3 1 C2.34 3.97 1.68 6.94 1 10 C0.67 10 0.34 10 0 10 C-1.125 6.6875 -1.125 6.6875 -2 3 C-1.34 2.01 -0.68 1.02 0 0 Z " fill="#1F6D0F" transform="translate(819,166)"/>
<path d="M0 0 C1.32 1.65 2.64 3.3 4 5 C3.01 5.99 2.02 6.98 1 8 C0.01 7.34 -0.98 6.68 -2 6 C-1.34 4.02 -0.68 2.04 0 0 Z " fill="#1D7A08" transform="translate(994,127)"/>
<path d="M0 0 C2.22606025 3.33909037 3.11033078 6.09914263 4 10 C3.55078125 12.22265625 3.55078125 12.22265625 3 14 C-1.07877462 5.96498906 -1.07877462 5.96498906 -0.75 1.9375 C-0.5025 1.298125 -0.255 0.65875 0 0 Z " fill="#215B16" transform="translate(877,97)"/>
<path d="M0 0 C3.77300358 1.0197307 4.80206144 1.65872662 6.8125 5.125 C7.204375 6.07375 7.59625 7.0225 8 8 C7.01 8 6.02 8 5 8 C0 2.65116279 0 2.65116279 0 0 Z " fill="#060914" transform="translate(381,77)"/>
<path d="M0 0 C-0.33 0.99 -0.66 1.98 -1 3 C-4.3 3.33 -7.6 3.66 -11 4 C-7.63661956 0.63661956 -4.71164284 0 0 0 Z " fill="#1B5F12" transform="translate(1004,39)"/>
<path d="M0 0 C3.48331435 3.01887244 4.79157144 5.56909529 6 10 C5.01 9.67 4.02 9.34 3 9 C0 2.88888889 0 2.88888889 0 0 Z " fill="#206011" transform="translate(1088,66)"/>
<path d="M0 0 C0 0.99 0 1.98 0 3 C-2.64 3.33 -5.28 3.66 -8 4 C-7.67 3.01 -7.34 2.02 -7 1 C-4.53721199 -0.231394 -2.7204945 -0.07159196 0 0 Z " fill="#080810" transform="translate(354,69)"/>
<path d="M0 0 C0.33 1.32 0.66 2.64 1 4 C1.66 4 2.32 4 3 4 C3.33 5.32 3.66 6.64 4 8 C3.34 8 2.68 8 2 8 C1.67 8.66 1.34 9.32 1 10 C0.63720544 8.71073008 0.28503302 7.41846728 -0.0625 6.125 C-0.35833984 5.04605469 -0.35833984 5.04605469 -0.66015625 3.9453125 C-1 2 -1 2 0 0 Z " fill="#206B13" transform="translate(776,165)"/>
<path d="M0 0 C2.76223278 2.76223278 2.57856291 5.20706617 3 9 C2.01 9.66 1.02 10.32 0 11 C-1.125 7.25 -1.125 7.25 0 5 C-0.32380126 3.66431979 -0.65657551 2.33076989 -1 1 C-0.67 0.67 -0.34 0.34 0 0 Z " fill="#0D131C" transform="translate(292,131)"/>
<path d="M0 0 C0.66 0 1.32 0 2 0 C0.515 5.445 0.515 5.445 -1 11 C-3 8 -3 8 -3 6 C-2.34 6 -1.68 6 -1 6 C-1.0309375 4.7934375 -1.0309375 4.7934375 -1.0625 3.5625 C-1 1 -1 1 0 0 Z " fill="#1B6110" transform="translate(920,130)"/>
<path d="M0 0 C2.09749995 2.35968744 2.96905704 3.54616994 3.1875 6.75 C3.125625 7.4925 3.06375 8.235 3 9 C2.34 9 1.68 9 1 9 C-1.09230769 4.56923077 -1.09230769 4.56923077 -0.625 1.6875 C-0.41875 1.130625 -0.2125 0.57375 0 0 Z " fill="#1A5A0F" transform="translate(760,118)"/>
<path d="M0 0 C2.51699845 2.51699845 3.10964078 4.57554146 4 8 C3.625 10.375 3.625 10.375 3 12 C1.23537317 8.91190305 1 7.76687864 1 4 C0.34 4 -0.32 4 -1 4 C-0.67 2.68 -0.34 1.36 0 0 Z " fill="#236214" transform="translate(1096,81)"/>
<path d="M0 0 C-0.99 1.485 -0.99 1.485 -2 3 C-5.3 2.34 -8.6 1.68 -12 1 C-12 0.67 -12 0.34 -12 0 C-3.42857143 -1.28571429 -3.42857143 -1.28571429 0 0 Z " fill="#0C1522" transform="translate(375,147)"/>
<path d="M0 0 C1.32 0.66 2.64 1.32 4 2 C2.68 3.65 1.36 5.3 0 7 C-0.99 6.67 -1.98 6.34 -3 6 C-2.01 4.02 -1.02 2.04 0 0 Z " fill="#16600E" transform="translate(1059,120)"/>
<path d="M0 0 C-1.25125384 3.75376152 -2.5652404 4.24073289 -6 6 C-6.66 6 -7.32 6 -8 6 C-6.72879117 2.18637351 -4.19078006 0 0 0 Z " fill="#040911" transform="translate(182,54)"/>
<path d="M0 0 C-6.28571429 2.42857143 -6.28571429 2.42857143 -10 1 C-6.54366026 -2.45633974 -4.11562231 -2.49877069 0 0 Z " fill="#010409" transform="translate(517,38)"/>
<path d="M0 0 C-1.97420135 2.52259061 -2.96745642 2.9929808 -6.1875 3.6875 C-7.5796875 3.8421875 -7.5796875 3.8421875 -9 4 C-9.33 3.01 -9.66 2.02 -10 1 C-6.59437148 0.22157062 -3.49234244 -0.09978121 0 0 Z " fill="#0B0D17" transform="translate(350,36)"/>
<path d="M0 0 C2.1385485 2.1385485 2.42655063 3.13275314 3 6 C1.35 6.66 -0.3 7.32 -2 8 C-2 6.68 -2 5.36 -2 4 C-1.34 4 -0.68 4 0 4 C0 2.68 0 1.36 0 0 Z " fill="#071423" transform="translate(331,135)"/>
<path d="M0 0 C3.43752007 1.5277867 6.18953688 3.50181056 9 6 C9 6.66 9 7.32 9 8 C4.7257442 6.4169423 2.73468206 3.49431596 0 0 Z " fill="#050710" transform="translate(330,133)"/>
<path d="M0 0 C2.64 1.98 5.28 3.96 8 6 C6.68 6.33 5.36 6.66 4 7 C3.67 6.01 3.34 5.02 3 4 C2.01 3.67 1.02 3.34 0 3 C0 2.01 0 1.02 0 0 Z " fill="#1B5B13" transform="translate(999,131)"/>
<path d="M0 0 C0.33 0.66 0.66 1.32 1 2 C1.66 2 2.32 2 3 2 C2.34 3.32 1.68 4.64 1 6 C0.01 6 -0.98 6 -2 6 C-1.34 4.02 -0.68 2.04 0 0 Z " fill="#226E12" transform="translate(959,75)"/>
<path d="M0 0 C0.33 0.66 0.66 1.32 1 2 C-3.16138263 2.08159574 -6.9472484 1.98248524 -11 1 C-11 0.67 -11 0.34 -11 0 C-3.19354839 -1.35111663 -3.19354839 -1.35111663 0 0 Z " fill="#20730D" transform="translate(1039,38)"/>
<path d="M0 0 C2 4 2 4 1.125 7.25 C0.75375 8.1575 0.3825 9.065 0 10 C-0.66 9.67 -1.32 9.34 -2 9 C-1.34 6.03 -0.68 3.06 0 0 Z " fill="#29651B" transform="translate(803,110)"/>
<path d="M0 0 C1.61949011 2.57213134 2.04408751 3.67669159 1.625 6.75 C1.41875 7.4925 1.2125 8.235 1 9 C-1 6 -1 6 -0.625 2.8125 C-0.41875 1.884375 -0.2125 0.95625 0 0 Z " fill="#1C6011" transform="translate(844,98)"/>
<path d="M0 0 C0.66 0 1.32 0 2 0 C4.125 4.625 4.125 4.625 3 8 C1.68 6.02 0.36 4.04 -1 2 C-0.67 1.34 -0.34 0.68 0 0 Z " fill="#216815" transform="translate(1053,82)"/>
<path d="M0 0 C0.99 0.33 1.98 0.66 3 1 C2.34 2.32 1.68 3.64 1 5 C0.34 5 -0.32 5 -1 5 C-1.33 5.99 -1.66 6.98 -2 8 C-1.125 1.125 -1.125 1.125 0 0 Z " fill="#236A14" transform="translate(816,68)"/>
<path d="M0 0 C1 3 1 3 -0.3125 5.6875 C-0.869375 6.450625 -1.42625 7.21375 -2 8 C-2.66 8 -3.32 8 -4 8 C-3.40072174 4.64404172 -2.15377564 2.62198774 0 0 Z " fill="#060A11" transform="translate(171,62)"/>
</svg>
